<?xml version="1.0" encoding="utf-8"?>
<!-- Generator: Adobe Illustrator 24.0.1, SVG Export Plug-In . SVG Version: 6.00 Build 0)  -->
<svg version="1.1" id="Layer_1" xmlns="http://www.w3.org/2000/svg" xmlns:xlink="http://www.w3.org/1999/xlink" x="0px" y="0px"
	 viewBox="0 0 50 50" style="enable-background:new 0 0 50 50;" xml:space="preserve">
<path d="M24.8,2.2C12.2,2.2,2.1,12.3,2.1,24.9s10.2,22.7,22.7,22.7s22.7-10.2,22.7-22.7S37.3,2.2,24.8,2.2z M18.7,35.3h-4.4V19.6
	h4.4V35.3z M16.5,17.9L16.5,17.9c-1.3,0-2.2-1-2.2-2.2c0-1.2,0.9-2.2,2.2-2.2c1.3,0,2.1,0.9,2.2,2.2C18.7,16.9,17.8,17.9,16.5,17.9z
	 M35.2,35.3h-4.4v-7.9c0-2.6-1.3-3.5-2.6-3.5c-1.3,0-2.6,0.9-2.6,3.5v7.9h-4.4V19.6h4.4v2.6c0.3-0.9,1.7-2.6,4.4-2.6
	c3.5,0,5.2,2.6,5.2,7V35.3z"/>
</svg>
