<?xml version="1.0" encoding="utf-8"?>
<!-- Generator: Adobe Illustrator 24.0.1, SVG Export Plug-In . SVG Version: 6.00 Build 0)  -->
<svg version="1.1" id="Layer_1" xmlns="http://www.w3.org/2000/svg" xmlns:xlink="http://www.w3.org/1999/xlink" x="0px" y="0px"
	 viewBox="0 0 50 50" style="enable-background:new 0 0 50 50;" xml:space="preserve">
<style type="text/css">
	.st0{fill:#FFFFFF;}
</style>
<circle cx="25" cy="25" r="23"/>
<g>
	<path class="st0" d="M31,11.8l6.6,0.9l-8,10.4l8.9,15.4h-9.7L24,31.2l-6.5,4.4c0,0-2.6,4-5.8,1.9s6.8-12.4,6.8-12.4l-6.8-13.3h7.5
		c0,0,4.8,7.5,5.6,6.5C25.5,17.2,31,11.8,31,11.8z"/>
	<polygon points="33.8,35.5 19.7,15.5 16.6,15.5 30.7,35.5 	"/>
	<path d="M40.9,12.1l-11.7-2L26,14.3l-5.3-4.3H8.6l7.1,15.4l-8.7,12l2.5,1.8c3.6-0.6,7.5-1.3,7.5-1.3l4.6-1.7c0,0,0.9,1.1,2,2.6
		l10.1,2.5l7.1-1.5l-9.8-16.2L40.9,12.1z M37.6,37.5h-7.9l-6.5-9.3l-7.9,9.3h-2.5L22,26.6l-9.2-13.1h7.9l5.6,8l6.8-8h2.5l-8.2,9.6
		L37.6,37.5z"/>
</g>
</svg>
