<?xml version="1.0" encoding="utf-8"?>
<!-- Generator: Adobe Illustrator 19.0.0, SVG Export Plug-In . SVG Version: 6.00 Build 0)  -->
<svg version="1.1"
	 id="SVGRoot" xmlns:rdf="http://www.w3.org/1999/02/22-rdf-syntax-ns#" xmlns:sodipodi="http://sodipodi.sourceforge.net/DTD/sodipodi-0.dtd" xmlns:svg="http://www.w3.org/2000/svg" xmlns:inkscape="http://www.inkscape.org/namespaces/inkscape" xmlns:dc="http://purl.org/dc/elements/1.1/" xmlns:cc="http://creativecommons.org/ns#"
	 xmlns="http://www.w3.org/2000/svg" xmlns:xlink="http://www.w3.org/1999/xlink" x="0px" y="0px" viewBox="-79 -120 800 800"
	 style="enable-background:new -79 -120 800 800;" xml:space="preserve">
<style type="text/css">
	.st0{fill:#1F99A8;}
	.st1{fill:none;stroke:#1F99A8;stroke-width:50;stroke-linecap:round;stroke-linejoin:round;}
</style>
<g>
	<path class="st0" d="M323,670c-23.9,0-47.7-2.2-71.5-6.6c-18.1-3.3-30.2-20.7-26.8-38.8c3.3-18.1,20.7-30.2,38.8-26.8
		c82.9,15.2,167.5-1.7,238.2-47.5c70.8-45.8,120.6-116.3,140.4-198.2c19.9-81.9,7.8-167.3-34-240.6
		c-41.7-73.2-109.3-127-189.9-151.3c-17.7-5.3-27.6-23.9-22.3-41.6s23.9-27.6,41.6-22.3C485.6-89,530-65.8,569.2-34.5
		c39.4,31.3,72,69.3,96.9,112.9c24.9,43.6,41.2,91,48.3,140.8c7,49.7,4.7,99.8-7.2,148.7s-32.6,94.5-61.8,135.4
		c-29.2,40.9-65.2,75.7-107.4,103c-42.2,27.4-88.6,46.2-137.9,56.1C374.6,667.5,348.8,670,323,670z"/>
</g>
<g>
	<path class="st0" d="M81.7,577.7c-7.9,0-15.9-2.8-22.3-8.5C6.8,522.1-32.4,461.6-53.8,394.3s-24.4-139.2-8.6-208.1
		C-46.5,117.5-12.5,54,36,2.8c48.6-51.3,110.2-88.6,178-108c17.7-5.1,36.2,5.1,41.3,22.9c5.1,17.7-5.1,36.2-22.9,41.3
		C176-25,124.9,6.1,84.5,48.7S15.9,144.1,2.8,201.3S-7.9,318.2,9.9,374.2s50.3,106.1,94,145.3c13.7,12.4,14.9,33.4,2.6,47.2
		C99.9,574,90.8,577.7,81.7,577.7z"/>
</g>
<g>
	<path class="st0" d="M383.2,88.3c0,32.3-26.1,58.4-58.4,58.4s-58.4-26.1-58.4-58.4s26.1-58.4,58.4-58.4
		C357,30,383.2,56.2,383.2,88.3z"/>
	<path class="st0" d="M324.8,147.2c-32.5,0-58.9-26.4-58.9-58.9s26.4-58.9,58.9-58.9c32.5,0,58.9,26.4,58.9,58.9
		S357.3,147.2,324.8,147.2z M324.8,30.5c-31.9,0-57.9,25.9-57.9,57.9s25.9,57.9,57.9,57.9s57.9-25.9,57.9-57.9
		C382.6,56.5,356.7,30.5,324.8,30.5z"/>
</g>
<g>
	<path class="st0" d="M269.7,216.4h59.1h41.4c0,40.5-24.4,93.7-24.4,138.8h-48.7C297.1,306.1,269.7,259.2,269.7,216.4z"/>
</g>
<path class="st1" d="M269.7,216.4c21.4,0,59.1,0,59.1,0s25.3,0,41.4,0 M269.7,216.4c0,42.8,27.4,89.8,27.4,138.8 M269.7,216.4
	C211.4,191.2,120.5,152,120.5,152 M297.1,355c-35.7,63.1-91.4,161.4-91.4,161.4 M297.1,355c19,0,29.7,0,48.7,0 M345.8,355
	c36.8,63.1,94.4,161.4,94.4,161.4 M345.8,355c0-45.1,24.4-98.2,24.4-138.8 M370.2,216.4c60.6-25.1,155.3-64.3,155.3-64.3"/>
</svg>
