<?xml version="1.0" encoding="utf-8"?>
<!-- Generator: Adobe Illustrator 19.0.0, SVG Export Plug-In . SVG Version: 6.00 Build 0)  -->
<svg version="1.1"
	 id="SVGRoot" xmlns:rdf="http://www.w3.org/1999/02/22-rdf-syntax-ns#" xmlns:sodipodi="http://sodipodi.sourceforge.net/DTD/sodipodi-0.dtd" xmlns:svg="http://www.w3.org/2000/svg" xmlns:inkscape="http://www.inkscape.org/namespaces/inkscape" xmlns:dc="http://purl.org/dc/elements/1.1/" xmlns:cc="http://creativecommons.org/ns#"
	 xmlns="http://www.w3.org/2000/svg" xmlns:xlink="http://www.w3.org/1999/xlink" x="0px" y="0px" viewBox="-79 -120 800 800"
	 style="enable-background:new -79 -120 800 800;" xml:space="preserve">
<style type="text/css">
	.st0{fill:#1F99A8;}
</style>
<g>
	<path class="st0" d="M322.4,673c-23.9,0-47.7-2.2-71.5-6.6c-18.1-3.3-30.2-20.7-26.8-38.8c3.3-18.1,20.7-30.2,38.8-26.8
		c82.9,15.2,167.5-1.7,238.2-47.5c70.8-45.8,120.6-116.3,140.4-198.2c19.9-81.9,7.8-167.3-34-240.6
		c-41.7-73.2-109.3-127-189.9-151.3c-17.7-5.3-27.6-23.9-22.3-41.6s23.9-27.6,41.6-22.3C485-86,529.4-62.8,568.6-31.5
		c39.4,31.3,72,69.3,96.9,112.9s41.2,91,48.3,140.8c7,49.7,4.7,99.8-7.2,148.7s-32.6,94.5-61.8,135.4s-65.2,75.7-107.4,103
		c-42.2,27.4-88.6,46.2-137.9,56.1C374,670.5,348.2,673,322.4,673z"/>
</g>
<g>
	<path class="st0" d="M81.1,580.7c-7.9,0-15.9-2.8-22.3-8.5C6.2,525.1-33,464.6-54.4,397.3S-78.8,258.1-63,189.2
		C-47.1,120.5-13.1,57,35.4,5.8c48.6-51.3,110.2-88.6,178-108c17.7-5.1,36.2,5.1,41.3,22.9c5.1,17.7-5.1,36.2-22.9,41.3
		C175.4-22,124.3,9.1,83.9,51.7S15.3,147.1,2.2,204.3S-8.5,321.2,9.3,377.2s50.3,106.1,94,145.3c13.7,12.4,14.9,33.4,2.6,47.2
		C99.3,577,90.2,580.7,81.1,580.7z"/>
</g>
<g id="compliance">
	<g>
		<path class="st0" d="M487.8,470.3H154.9V104h83.2V70.7h166.5V104h83.2V470.3L487.8,470.3z M188.2,437h266.3V137.3h-49.9v49.9
			H238.1v-49.9h-49.9V437z M271.4,154h99.9v-50h-99.9V154z M304.7,377.1l-61.6-61.6l23.3-23.3l38.3,38.3l88.2-88.2l23.4,23.2
			L304.7,377.1z"/>
	</g>
</g>
</svg>
