<?xml version="1.0" encoding="utf-8"?>
<!-- Generator: Adobe Illustrator 19.0.0, SVG Export Plug-In . SVG Version: 6.00 Build 0)  -->
<svg version="1.1"
	 id="SVGRoot" xmlns:rdf="http://www.w3.org/1999/02/22-rdf-syntax-ns#" xmlns:sodipodi="http://sodipodi.sourceforge.net/DTD/sodipodi-0.dtd" xmlns:svg="http://www.w3.org/2000/svg" xmlns:inkscape="http://www.inkscape.org/namespaces/inkscape" xmlns:dc="http://purl.org/dc/elements/1.1/" xmlns:cc="http://creativecommons.org/ns#"
	 xmlns="http://www.w3.org/2000/svg" xmlns:xlink="http://www.w3.org/1999/xlink" x="0px" y="0px" viewBox="-79 -120 800 800"
	 style="enable-background:new -79 -120 800 800;" xml:space="preserve">
<style type="text/css">
	.st0{fill:#1F99A8;}
	.st1{fill:none;stroke:#1F99A8;stroke-width:40;stroke-miterlimit:10;}
</style>
<g>
	<path class="st0" d="M323,670c-23.9,0-47.7-2.2-71.5-6.6c-18.1-3.3-30.2-20.7-26.8-38.8c3.3-18.1,20.7-30.2,38.8-26.8
		c82.9,15.2,167.5-1.7,238.2-47.5c70.8-45.8,120.6-116.3,140.4-198.2c19.9-81.9,7.8-167.3-34-240.6
		c-41.7-73.2-109.3-127-189.9-151.3c-17.7-5.3-27.6-23.9-22.3-41.6s23.9-27.6,41.6-22.3C485.6-89,530-65.8,569.2-34.5
		c39.4,31.3,72,69.3,96.9,112.9c24.9,43.6,41.2,91,48.3,140.8c7,49.7,4.7,99.8-7.2,148.7s-32.6,94.5-61.8,135.4
		c-29.2,40.9-65.2,75.7-107.4,103c-42.2,27.4-88.6,46.2-137.9,56.1C374.6,667.5,348.8,670,323,670z"/>
</g>
<g>
	<path class="st0" d="M81.7,577.7c-7.9,0-15.9-2.8-22.3-8.5C6.8,522.1-32.4,461.6-53.8,394.3s-24.4-139.2-8.6-208.1
		C-46.5,117.5-12.5,54,36,2.8c48.6-51.3,110.2-88.6,178-108c17.7-5.1,36.2,5.1,41.3,22.9c5.1,17.7-5.1,36.2-22.9,41.3
		C176-25,124.9,6.1,84.5,48.7S15.9,144.1,2.8,201.3S-7.9,318.2,9.9,374.2s50.3,106.1,94,145.3c13.7,12.4,14.9,33.4,2.6,47.2
		C99.9,574,90.8,577.7,81.7,577.7z"/>
</g>
<g>
	<path class="st1" d="M241.2,387.9l60.2,46.6c7.8,7.8,25.3,11.7,36.9,11.7h73.8c23.3,0,48.6-17.5,54.4-40.8l46.6-141.8
		c9.7-27.2-7.8-50.5-36.9-50.5h-77.7c-11.7,0-21.4-9.7-19.4-23.3l9.7-62.2c3.9-17.5-7.8-36.9-25.3-42.7c-15.5-5.8-35,1.9-42.7,13.6
		L241.2,217"/>
	<path class="st1" d="M142.1,387.9V197.5c0-27.2,11.7-36.9,38.8-36.9h19.4c27.2,0,38.8,9.7,38.8,36.9v190.4
		c0,27.2-11.7,36.9-38.8,36.9H181C153.8,424.8,142.1,415.1,142.1,387.9z"/>
</g>
</svg>
