<?xml version="1.0" encoding="utf-8"?>
<!-- Generator: Adobe Illustrator 19.0.0, SVG Export Plug-In . SVG Version: 6.00 Build 0)  -->
<svg version="1.1"
	 id="SVGRoot" xmlns:rdf="http://www.w3.org/1999/02/22-rdf-syntax-ns#" xmlns:sodipodi="http://sodipodi.sourceforge.net/DTD/sodipodi-0.dtd" xmlns:svg="http://www.w3.org/2000/svg" xmlns:inkscape="http://www.inkscape.org/namespaces/inkscape" xmlns:dc="http://purl.org/dc/elements/1.1/" xmlns:cc="http://creativecommons.org/ns#"
	 xmlns="http://www.w3.org/2000/svg" xmlns:xlink="http://www.w3.org/1999/xlink" x="0px" y="0px" viewBox="-79 -120 800 800"
	 style="enable-background:new -79 -120 800 800;" xml:space="preserve">
<style type="text/css">
	.st0{fill:#1F99A8;}
</style>
<g>
	<path class="st0" d="M320,678c-23.9,0-47.7-2.2-71.6-6.6c-18.1-3.3-30.2-20.7-26.8-38.8c3.3-18.1,20.7-30.2,38.8-26.8
		c82.9,15.2,167.5-1.7,238.3-47.5C569.5,512.4,619.4,442,639.2,360c19.9-81.9,7.8-167.4-34.1-240.6c-41.7-73.2-109.3-127-190-151.4
		c-17.7-5.3-27.6-23.9-22.3-41.6c5.3-17.7,23.9-27.6,41.6-22.3c48.1,14.6,92.5,37.8,131.8,69.1c39.4,31.3,72,69.3,96.9,113
		c24.9,43.6,41.2,91,48.3,140.8c7,49.7,4.7,99.8-7.2,148.7c-11.9,48.9-32.6,94.5-61.8,135.4s-65.2,75.7-107.4,103.1
		c-42.2,27.4-88.6,46.2-137.9,56.1C371.6,675.4,345.8,678,320,678z"/>
</g>
<g>
	<path class="st0" d="M78.6,585.6c-7.9,0-15.9-2.8-22.3-8.5C3.7,530.1-35.5,469.6-56.8,402.2S-81.2,263-65.4,194.1
		C-49.6,125.3-15.5,61.9,33,10.6C81.6-40.7,143.2-78,211-97.5c17.7-5.1,36.2,5.1,41.3,22.9c5.1,17.7-5.1,36.2-22.9,41.3
		C173-17.1,121.9,13.9,81.5,56.6S12.8,151.9-0.3,209.1s-10.7,117,7.1,172.9s50.3,106.2,94,145.3c13.7,12.4,14.9,33.4,2.6,47.2
		C96.9,582,87.7,585.6,78.6,585.6z"/>
</g>
<g>
	<path class="st0" d="M319.8,540.6c-19.5,0-39-2.2-58.1-6.7c-56.6-13.1-107.8-45.5-143.9-91.1C81.6,397.1,61.8,340,62,281.8
		c0.1-58.2,20.3-115.3,56.6-160.7s87.7-77.5,144.5-90.4c56.8-12.8,116.9-6,169.3,19.4c52.3,25.5,95,68.3,120.2,120.7
		c25.2,52.4,31.9,112.6,18.9,169.3c-4.1,18-22,29.2-40,25c-18-4.1-29.2-22-25-40c9.7-42.1,4.7-86.6-14-125.5
		c-18.7-38.8-50.3-70.7-89.1-89.4C364.5,91.5,320,86.5,277.9,96c-42.1,9.6-80.1,33.3-107.1,67c-26.9,33.6-41.8,75.9-42,119.1
		s14.6,85.5,41.4,119.3c26.8,33.8,64.7,57.8,106.7,67.6c42.1,9.8,86.6,4.9,125.5-13.7c16.7-7.9,36.6-0.9,44.5,15.8
		s0.9,36.6-15.8,44.5C396.2,532.1,358.1,540.6,319.8,540.6z"/>
</g>
<g>
	<path class="st0" d="M320,403.3c-13.9,0-27.8-2.4-41-7.1c-17.4-6.2-26.4-25.4-20.1-42.7c6.2-17.4,25.4-26.4,42.7-20.1
		c9,3.2,18.8,4,28.3,2.2c9.5-1.8,18.3-6,25.5-12.4c7.2-6.3,12.7-14.5,15.8-23.6c3-9.1,3.7-18.9,1.7-28.3c-2-9.3-6.5-18.1-12.9-25.3
		c-6.5-7.1-14.7-12.4-23.9-15.2c-9.1-2.9-18.9-3.2-28.3-1c-9.3,2.2-17.9,6.8-24.9,13.5c-13.4,12.7-34.5,12.1-47.2-1.2
		s-12.1-34.5,1.2-47.2c15.6-14.8,34.8-25.2,55.8-30c20.9-4.9,42.8-4.1,63.3,2.3c20.5,6.3,39,18.1,53.4,34.1s24.4,35.4,28.8,56.4
		c4.5,21,3.1,42.8-3.7,63.2c-6.8,20.4-19,38.6-35.2,52.6c-16.2,14.2-35.9,23.8-57.1,27.7C334.9,402.7,327.5,403.3,320,403.3z"/>
</g>
</svg>
