<?xml version="1.0" encoding="utf-8"?>
<!-- Generator: Adobe Illustrator 19.0.0, SVG Export Plug-In . SVG Version: 6.00 Build 0)  -->
<svg version="1.1"
	 id="SVGRoot" xmlns:rdf="http://www.w3.org/1999/02/22-rdf-syntax-ns#" xmlns:sodipodi="http://sodipodi.sourceforge.net/DTD/sodipodi-0.dtd" xmlns:svg="http://www.w3.org/2000/svg" xmlns:inkscape="http://www.inkscape.org/namespaces/inkscape" xmlns:dc="http://purl.org/dc/elements/1.1/" xmlns:cc="http://creativecommons.org/ns#"
	 xmlns="http://www.w3.org/2000/svg" xmlns:xlink="http://www.w3.org/1999/xlink" x="0px" y="0px" viewBox="-79 -120 800 800"
	 style="enable-background:new -79 -120 800 800;" xml:space="preserve">
<style type="text/css">
	.st0{fill:#1F99A8;}
</style>
<g>
	<path class="st0" d="M321,676c-24.1,0-48-2.2-71.9-6.6c-18.2-3.4-30.3-20.8-27-39.1c3.4-18.2,20.8-30.3,39.1-27
		c83.4,15.3,168.4-1.7,239.6-47.8S622,438.7,641.9,356.3c20-82.4,7.8-168.3-34.2-241.9c-42-73.6-109.9-127.7-191-152.2
		c-17.8-5.4-27.7-24.1-22.4-41.8s24.1-27.7,41.8-22.4c48.3,14.7,93,38,132.5,69.5C608.2-1.1,641,37.2,666.1,81.1
		c25.1,43.9,41.4,91.5,48.6,141.5c7,50,4.7,100.4-7.3,149.5c-12,49.1-32.8,95-62.1,136.2c-29.3,41.2-65.6,76.1-108,103.6
		c-42.4,27.5-89.1,46.4-138.6,56.4C372.9,673.4,347,676,321,676z"/>
</g>
<g>
	<path class="st0" d="M78.3,583.1c-7.9,0-16-2.8-22.4-8.5C3,527.3-36.4,466.4-57.9,398.7s-24.5-140-8.6-209.2
		C-50.6,120.3-16.4,56.6,32.4,5c48.9-51.6,110.8-89.1,179-108.6c17.8-5.1,36.4,5.1,41.5,23c5.1,17.8-5.1,36.4-23,41.5
		C173.2-22.9,121.8,8.3,81.2,51.2S12.2,147.1-1,204.6s-10.7,117.6,7.2,173.9s50.6,106.7,94.5,146.1c13.8,12.4,15,33.6,2.6,47.4
		C96.7,579.4,87.5,583.1,78.3,583.1z"/>
</g>
<path class="st0" d="M569.3,194.8c-2.5-7.6-9-13.2-16.9-14.5L407.9,156L340.2,26.2c-3.7-7-11.1-11.5-19-11.5
	c-7.9,0-15.3,4.5-19,11.5L234.5,156L90.1,180.3c-7.9,1.3-14.4,6.9-16.9,14.5c-2.5,7.6-0.6,16,5.1,21.7l102.6,104.5l-21.6,144.8
	c-1.2,7.9,2.1,15.8,8.6,20.5c6.5,4.7,15,5.4,22.2,1.9l131-65.2l131,65.2c3,1.5,6.3,2.2,9.5,2.2c4.5,0,8.8-1.3,12.6-4.1
	c6.5-4.7,9.8-12.6,8.6-20.5l-21.6-144.8l102.6-104.5C569.7,210.8,571.7,202.4,569.3,194.8L569.3,194.8z M423.5,298.5
	c-4.7,4.8-6.9,11.5-5.9,18.2l17,114.6l-103.7-51.7c-3-1.5-6.3-2.2-9.6-2.2c-3.2,0-6.6,0.8-9.5,2.2L208,431.3l17.1-114.7
	c1-6.6-1.2-13.4-5.9-18.2l-81.2-82.7l114.4-19.1c6.6-1.1,12.4-5.3,15.4-11.2l53.6-102.8l53.6,102.8c3.1,5.9,8.8,10.2,15.4,11.2
	l114.4,19.1L423.5,298.5L423.5,298.5z"/>
</svg>
