<?xml version="1.0" encoding="utf-8"?>
<!-- Generator: Adobe Illustrator 19.0.0, SVG Export Plug-In . SVG Version: 6.00 Build 0)  -->
<svg version="1.1"
	 id="SVGRoot" xmlns:rdf="http://www.w3.org/1999/02/22-rdf-syntax-ns#" xmlns:sodipodi="http://sodipodi.sourceforge.net/DTD/sodipodi-0.dtd" xmlns:svg="http://www.w3.org/2000/svg" xmlns:inkscape="http://www.inkscape.org/namespaces/inkscape" xmlns:dc="http://purl.org/dc/elements/1.1/" xmlns:cc="http://creativecommons.org/ns#"
	 xmlns="http://www.w3.org/2000/svg" xmlns:xlink="http://www.w3.org/1999/xlink" x="0px" y="0px" viewBox="-79 -120 800 800"
	 style="enable-background:new -79 -120 800 800;" xml:space="preserve">
<style type="text/css">
	.st0{fill:#1F99A8;}
</style>
<g>
	<path class="st0" d="M321,671.2c-24.1,0-48.3-2.2-72.3-6.6c-18.3-3.4-30.5-21-27.1-39.3c3.4-18.3,21-30.5,39.3-27.1
		c83.8,15.4,169.3-1.6,240.8-48c71.5-46.4,121.9-117.5,142-200.3c20.1-82.8,7.8-169.2-34.5-243.1c-42.3-74-110.5-128.3-192.1-153
		c-17.8-5.4-27.9-24.2-22.5-42.1c5.4-17.8,24.2-27.9,42.1-22.5C485.4-96.1,530.2-72.6,570-41c39.7,31.7,72.7,70.1,97.9,114.2
		c25.2,44.1,41.6,92,48.8,142.3c7.1,50.3,4.7,100.9-7.3,150.2c-12,49.4-32.9,95.4-62.3,136.9c-29.4,41.5-65.9,76.5-108.5,104.2
		c-42.6,27.7-89.5,46.7-139.3,56.7C373.2,668.6,347.1,671.2,321,671.2z"/>
</g>
<g>
	<path class="st0" d="M77,577.9c-8,0-16.1-2.8-22.5-8.6C1.3,521.7-38.2,460.6-59.8,392.6c-21.6-68-24.6-140.8-8.6-210.3
		C-52.5,112.7-18.1,48.5,31-3.3c49.1-51.8,111.3-89.6,179.9-109.3c17.9-5.1,36.6,5.2,41.7,23.1c5.1,17.9-5.2,36.6-23.1,41.7
		C172.5-31.3,120.8,0.1,80,43.2C39.1,86.2,10.6,139.5-2.7,197.3C-16,255.2-13.5,315.6,4.5,372.2c18,56.5,50.8,107.3,95,146.9
		c13.9,12.4,15.1,33.8,2.6,47.6C95.5,574.1,86.3,577.9,77,577.9z"/>
</g>
<g>
	<path class="st0" d="M499.6,91.3c-38.8-38.8-101.9-38.8-140.6,0l-48.4,48.4c-7,7-7,18.3,0,25.2l12.7,12.7
		c13.6,13.6,35.8,13.6,49.4,0l36.4-36.4c11.2-11.2,29.5-11.2,40.7,0c11.2,11.2,11.2,29.5,0,40.7c-7.6,7.6-18.9,10.3-29.5,7l-5-1.2
		c-7.4-1.7-15.2,1.1-19.8,7.2c-4.7,6.2-5.1,15.7-1.2,23.5l22.2,51.9c1.2,2.7,2.8,5.1,4.9,7.2c3.3,3.3,7.4,5.5,11.9,6.3
		c7.5,1.4,15.2-0.9,20.6-6.3l45.7-45.7C538.4,193.2,538.4,130.1,499.6,91.3z"/>
	<path class="st0" d="M404.4,275.6l-1.7-4.1L291.3,382.9c0.8,5.3,1.3,10.6,1.3,16c0,7.5-0.8,15-2.4,22.2l128.8-128.8
		c-2.5-1.5-4.8-3.3-6.8-5.4C408.8,283.6,406.2,279.8,404.4,275.6z"/>
	<path class="st0" d="M212.2,315.8l-23.6,23.6c0.9,0,1.7-0.1,2.5-0.1c15.9,0,30.8,6.2,42.1,17.4c11.2,11.3,17.4,26.2,17.4,42.1
		c0,15.9-6.2,30.9-17.4,42.1c-11.2,11.2-26.2,17.4-42.1,17.5c-15.9,0-30.8-6.2-42.1-17.4c-11.2-11.2-17.4-26.2-17.4-42.1
		c0-14.8,5.4-28.8,15.2-39.7l-0.1-0.1l169.8-169.8c-0.9-0.8-1.7-1.6-2.6-2.4l-12.7-12.7c-1.1-1.1-2.2-2.4-3.1-3.6L130.5,338.3
		c-2.9,2.9-5.6,6.1-8.2,9.6c-0.1,0.2-0.3,0.4-0.5,0.6c-0.1,0.1-0.1,0.2-0.3,0.4c-0.5,0.6-0.9,1.3-1.3,1.9l-0.3,0.5
		c-0.2,0.3-0.4,0.6-0.6,0.8l-0.5,0.8c-0.2,0.3-0.5,0.7-0.7,1l-0.2,0.4c-8.2,13.5-12.5,28.9-12.5,44.5c0,22.9,8.9,44.4,25.1,60.6
		c16.2,16.2,37.7,25.1,60.6,25.1c22.9,0,44.4-8.9,60.6-25.1c16.2-16.2,25.1-37.7,25.1-60.6c0-22.9-8.9-44.4-25.1-60.6
		C240.8,327.4,227.2,319.6,212.2,315.8z"/>
</g>
</svg>
