<?xml version="1.0" encoding="utf-8"?>
<!-- Generator: Adobe Illustrator 24.0.1, SVG Export Plug-In . SVG Version: 6.00 Build 0)  -->
<svg version="1.1" id="svg9" xmlns:svg="http://www.w3.org/2000/svg"
	 xmlns="http://www.w3.org/2000/svg" xmlns:xlink="http://www.w3.org/1999/xlink" x="0px" y="0px" viewBox="0 0 666.7 666.7"
	 style="enable-background:new 0 0 666.7 666.7;" xml:space="preserve">
<style type="text/css">
	.st0{clip-path:url(#SVGID_2_);}
	.st1{fill:#0866FF;}
	.st2{fill:#FFFFFF;}
</style>
<g id="g17" transform="matrix(1.3333333,0,0,-1.3333333,-133.33333,799.99999)">
	<g id="g19">
		<g>
			<defs>
				<rect id="SVGID_1_" x="-116.7" y="-116.7" width="933.3" height="933.3"/>
			</defs>
			<clipPath id="SVGID_2_">
				<use xlink:href="#SVGID_1_"  style="overflow:visible;"/>
			</clipPath>
			<g id="g21" class="st0">
				<g id="g27" transform="translate(600,350)">
					<path id="path29" class="st1" d="M0,0c0,138.1-111.9,250-250,250S-500,138.1-500,0c0-117.2,80.7-215.6,189.6-242.6v166.2h-51.6
						V0h51.6v32.9c0,85.1,38.5,124.5,122,124.5c15.8,0,43.2-3.1,54.3-6.2V82c-5.9,0.6-16.1,0.9-28.9,0.9c-41,0-56.8-15.5-56.8-55.9
						V0h81.7l-14-76.4h-67.6v-171.8C-95.9-233.2,0-127.8,0,0"/>
				</g>
				<g id="g31" transform="translate(447.9175,273.6036)">
					<path id="path33" class="st2" d="M0,0l14,76.4h-81.7v27c0,40.4,15.8,55.9,56.8,55.9c12.7,0,23-0.3,28.9-0.9v69.3
						c-11.2,3.1-38.5,6.2-54.3,6.2c-83.5,0-122-39.4-122-124.5V76.4h-51.6V0h51.6v-166.2c19.3-4.8,39.6-7.4,60.4-7.4
						c10.3,0,20.4,0.6,30.3,1.8V0H0z"/>
				</g>
			</g>
		</g>
	</g>
</g>
</svg>
