<?xml version="1.0" encoding="utf-8"?>
<!-- Generator: Adobe Illustrator 24.0.1, SVG Export Plug-In . SVG Version: 6.00 Build 0)  -->
<svg version="1.1" id="svg9" xmlns:svg="http://www.w3.org/2000/svg"
	 xmlns="http://www.w3.org/2000/svg" xmlns:xlink="http://www.w3.org/1999/xlink" x="0px" y="0px" viewBox="0 0 666.7 666.7"
	 style="enable-background:new 0 0 666.7 666.7;" xml:space="preserve">
<style type="text/css">
	.st0{fill:#1686B0;}
	.st1{fill:#FFFFFF;}
</style>
<g>
	<circle class="st0" cx="331.4" cy="333.3" r="333.3"/>
	<path class="st1" d="M239.8,484.7h-63.9V279.2h63.9V484.7z M205,252.8L205,252.8c-23.6,0-38.9-15.3-38.9-36.1s15.3-36.1,38.9-36.1
		c23.6,0,38.9,15.3,38.9,36.1C243.9,237.5,230,252.8,205,252.8z M496.7,484.7h-73.6V377.8c0-27.8-11.1-47.2-36.1-47.2
		c-19.4,0-29.2,12.5-34.7,25c-1.4,4.2-1.4,11.1-1.4,16.7v111.1h-72.2c0,0,1.4-188.9,0-205.6h72.2v31.9c4.2-13.9,27.8-34.7,63.9-34.7
		c45.8,0,81.9,29.2,81.9,93.1V484.7z"/>
</g>
</svg>
