<?xml version="1.0" encoding="UTF-8"?>
<svg id="Layer_1" data-name="Layer 1" xmlns="http://www.w3.org/2000/svg" xmlns:xlink="http://www.w3.org/1999/xlink" viewBox="0 0 248.45 202.33">
  <defs>
    <style>
      .cls-1 {
        fill: url(#radial-gradient-5);
      }

      .cls-2 {
        fill: url(#radial-gradient-4);
      }

      .cls-3 {
        fill: url(#radial-gradient-3);
      }

      .cls-4 {
        fill: url(#radial-gradient-2);
      }

      .cls-5 {
        fill: url(#radial-gradient);
      }

      .cls-6 {
        fill: #2c8f99;
      }
    </style>
    <radialGradient id="radial-gradient" cx="109.43" cy="122.38" fx="109.43" fy="122.38" r="114.86" gradientUnits="userSpaceOnUse">
      <stop offset=".57" stop-color="#00afcc"/>
      <stop offset="1" stop-color="#2c8f99"/>
    </radialGradient>
    <radialGradient id="radial-gradient-2" cx="109.43" cy="122.38" fx="109.43" fy="122.38" r="114.86" xlink:href="#radial-gradient"/>
    <radialGradient id="radial-gradient-3" cx="109.43" fx="109.43" r="114.86" xlink:href="#radial-gradient"/>
    <radialGradient id="radial-gradient-4" cx="109.43" cy="122.38" fx="109.43" fy="122.38" r="114.86" xlink:href="#radial-gradient"/>
    <radialGradient id="radial-gradient-5" cx="109.43" fx="109.43" r="114.86" xlink:href="#radial-gradient"/>
  </defs>
  <g>
    <path class="cls-5" d="M71.41,124.45c2.7,0,4.89-2.19,4.89-4.89,0-18.46,15.02-33.48,33.48-33.48,18.46,0,33.48,15.02,33.48,33.48,0,2.7,2.19,4.89,4.89,4.89s4.89-2.19,4.89-4.89c0-23.85-19.4-43.26-43.26-43.26-23.85,0-43.26,19.41-43.26,43.26,0,2.7,2.19,4.89,4.89,4.89Z"/>
    <path class="cls-4" d="M167.72,124.45c2.7,0,4.89-2.19,4.89-4.89,0-34.64-28.18-62.82-62.82-62.82-25.09,0-47.74,14.89-57.69,37.93-1.07,2.48.07,5.35,2.55,6.42,2.48,1.07,5.35-.07,6.42-2.55,8.41-19.46,27.53-32.03,48.72-32.03,29.25,0,53.04,23.8,53.04,53.04,0,2.7,2.19,4.89,4.89,4.89Z"/>
    <path class="cls-3" d="M37.2,150.27c.54,0,1.1-.09,1.64-.28,2.54-.9,3.87-3.7,2.97-6.24-2.75-7.74-4.15-15.88-4.15-24.18,0-39.77,32.36-72.13,72.13-72.13,39.77,0,72.13,32.36,72.13,72.13,0,2.7,2.19,4.89,4.89,4.89s4.89-2.19,4.89-4.89c0-45.16-36.74-81.91-81.91-81.91-45.16,0-81.91,36.74-81.91,81.91,0,9.42,1.59,18.66,4.72,27.46.71,2,2.6,3.25,4.6,3.25Z"/>
    <path class="cls-2" d="M41.62,192.61c1.25,0,2.5-.48,3.46-1.43,1.91-1.91,1.91-5,0-6.91-17.28-17.28-26.8-40.26-26.8-64.7,0-50.46,41.05-91.51,91.51-91.51,50.46,0,91.5,41.05,91.5,91.51,0,2.7,2.19,4.89,4.89,4.89s4.89-2.19,4.89-4.89c0-55.85-45.43-101.28-101.28-101.28-55.85,0-101.28,45.43-101.28,101.28,0,27.05,10.54,52.49,29.66,71.62.95.95,2.2,1.43,3.46,1.43Z"/>
    <path class="cls-1" d="M224.46,124.45c2.7,0,4.89-2.19,4.89-4.89C229.34,53.63,175.71,0,109.78,0,62.5,0,19.58,27.94.42,71.17c-1.09,2.47.02,5.35,2.49,6.45,2.47,1.09,5.35-.02,6.45-2.49C26.95,35.43,66.37,9.77,109.78,9.77c60.54,0,109.78,49.25,109.78,109.78,0,2.7,2.19,4.89,4.89,4.89Z"/>
  </g>
  <g>
    <path class="cls-6" d="M65.31,147.04c0-1.45.57-2.71,1.72-3.78,1.15-1.06,2.53-1.59,4.15-1.59s3.01.53,4.15,1.59c1.15,1.06,1.72,2.32,1.72,3.78v49.92c0,1.46-.57,2.71-1.72,3.78-1.15,1.06-2.53,1.59-4.15,1.59s-3.01-.53-4.15-1.59c-1.15-1.06-1.72-2.32-1.72-3.78v-49.92Z"/>
    <path class="cls-6" d="M100.88,198.38c-.45,1.23-1.23,2.2-2.35,2.89-1.12.7-2.18,1.05-3.19,1.05-1.62,0-3.03-.49-4.24-1.47-1.2-.98-1.8-2.28-1.8-3.9,0-.22.01-.53.04-.92.03-.39.1-.7.21-.92l16.36-47.74c.56-1.62,1.33-2.98,2.31-4.07.98-1.09,2.48-1.64,4.49-1.64s3.51.53,4.49,1.59c.98,1.06,1.77,2.43,2.39,4.11l16.36,47.74c.11.22.18.53.21.92.03.39.04.7.04.92,0,1.62-.57,2.92-1.72,3.9-1.15.98-2.59,1.47-4.32,1.47-1.12,0-2.24-.36-3.35-1.09-1.12-.73-1.9-1.68-2.35-2.85l-2.94-8.47h-17.87l-2.77,8.47ZM114.22,166c-.39-1.23-.7-2.59-.92-4.07-.22-1.48-.42-2.87-.59-4.15-.17,1.29-.36,2.67-.59,4.15-.22,1.48-.53,2.84-.92,4.07l-4.45,14.35h11.75l-4.28-14.35Z"/>
    <path class="cls-6" d="M187.59,200.69c-1.15,1.09-2.53,1.64-4.15,1.64s-2.94-.54-4.11-1.64c-1.17-1.09-1.76-2.36-1.76-3.82v-19.55h-17.87v19.55c0,1.46-.57,2.73-1.72,3.82s-2.53,1.64-4.15,1.64-3.01-.54-4.15-1.64-1.72-2.36-1.72-3.82v-49.83c0-1.45.57-2.71,1.72-3.78,1.15-1.06,2.53-1.59,4.15-1.59s3.01.53,4.15,1.59c1.15,1.06,1.72,2.32,1.72,3.78v19.55h17.87v-19.55c0-1.45.59-2.71,1.76-3.78,1.17-1.06,2.54-1.59,4.11-1.59s2.94.53,4.11,1.59c1.17,1.06,1.76,2.32,1.76,3.78v49.83c0,1.46-.57,2.73-1.72,3.82Z"/>
    <path class="cls-6" d="M213.13,198.38c-.45,1.23-1.23,2.2-2.35,2.89-1.12.7-2.18,1.05-3.19,1.05-1.62,0-3.03-.49-4.24-1.47-1.2-.98-1.8-2.28-1.8-3.9,0-.22.01-.53.04-.92.03-.39.1-.7.21-.92l16.36-47.74c.56-1.62,1.33-2.98,2.31-4.07.98-1.09,2.48-1.64,4.49-1.64s3.51.53,4.49,1.59c.98,1.06,1.78,2.43,2.39,4.11l16.36,47.74c.11.22.18.53.21.92.03.39.04.7.04.92,0,1.62-.57,2.92-1.72,3.9-1.15.98-2.59,1.47-4.32,1.47-1.12,0-2.24-.36-3.36-1.09-1.12-.73-1.9-1.68-2.35-2.85l-2.94-8.47h-17.87l-2.77,8.47ZM226.47,166c-.39-1.23-.7-2.59-.92-4.07-.22-1.48-.42-2.87-.59-4.15-.17,1.29-.36,2.67-.59,4.15-.22,1.48-.53,2.84-.92,4.07l-4.45,14.35h11.75l-4.28-14.35Z"/>
  </g>
</svg>