<?xml version="1.0" encoding="utf-8"?>
<!-- Generator: Adobe Illustrator 19.0.0, SVG Export Plug-In . SVG Version: 6.00 Build 0)  -->
<svg version="1.1" id="Layer_1" xmlns="http://www.w3.org/2000/svg" xmlns:xlink="http://www.w3.org/1999/xlink" x="0px" y="0px"
	 viewBox="-410 265 43.5 32" style="enable-background:new -410 265 43.5 32;" xml:space="preserve">
<style type="text/css">
	.st0{fill:url(#SVGID_1_);}
	.st1{fill:url(#SVGID_2_);}
	.st2{fill:url(#SVGID_3_);}
	.st3{fill:url(#SVGID_4_);}
	.st4{fill:url(#SVGID_5_);}
	.st5{fill:#2C8F99;}
</style>
<g>
	<g>
		
			<radialGradient id="SVGID_1_" cx="-391.0386" cy="280.0447" r="17.8465" gradientTransform="matrix(1 0 0 1 0 4)" gradientUnits="userSpaceOnUse">
			<stop  offset="0.6" style="stop-color:#00AFCC"/>
			<stop  offset="1" style="stop-color:#2C8F99"/>
		</radialGradient>
		<path class="st0" d="M-396.9,284.4c0.4,0,0.8-0.3,0.8-0.8c0-2.9,2.3-5.2,5.2-5.2c2.9,0,5.2,2.3,5.2,5.2c0,0.4,0.3,0.8,0.8,0.8
			s0.8-0.3,0.8-0.8c0-3.7-3-6.7-6.7-6.7s-6.7,3-6.7,6.7C-397.7,284-397.4,284.4-396.9,284.4L-396.9,284.4z"/>
		
			<radialGradient id="SVGID_2_" cx="-391.0386" cy="280.0447" r="17.8465" gradientTransform="matrix(1 0 0 1 0 4)" gradientUnits="userSpaceOnUse">
			<stop  offset="0.6" style="stop-color:#00AFCC"/>
			<stop  offset="1" style="stop-color:#2C8F99"/>
		</radialGradient>
		<path class="st1" d="M-382,284.4c0.4,0,0.8-0.3,0.8-0.8c0-5.4-4.4-9.8-9.8-9.8c-3.9,0-7.4,2.3-9,5.9c-0.2,0.4,0,0.8,0.4,1
			s0.8,0,1-0.4c1.3-3,4.3-5,7.6-5c4.5,0,8.2,3.7,8.2,8.2C-382.8,284-382.4,284.4-382,284.4L-382,284.4z"/>
		
			<radialGradient id="SVGID_3_" cx="-391.0386" cy="280.0447" r="17.8465" gradientTransform="matrix(1 0 0 1 0 4)" gradientUnits="userSpaceOnUse">
			<stop  offset="0.6" style="stop-color:#00AFCC"/>
			<stop  offset="1" style="stop-color:#2C8F99"/>
		</radialGradient>
		<path class="st2" d="M-402.3,288.4c0.1,0,0.2,0,0.2,0c0.4-0.1,0.6-0.6,0.5-1c-0.4-1.2-0.7-2.5-0.7-3.8c0-6.2,5-11.2,11.2-11.2
			s11.2,5,11.2,11.2s0.3,0.8,0.8,0.8s0.8-0.3,0.8-0.8c0-7-5.7-12.7-12.7-12.7s-12.7,5.7-12.7,12.7c0,1.5,0.2,2.9,0.7,4.3
			C-402.9,288.2-402.6,288.4-402.3,288.4L-402.3,288.4z"/>
		
			<radialGradient id="SVGID_4_" cx="-391.0386" cy="280.0447" r="17.8465" gradientTransform="matrix(1 0 0 1 0 4)" gradientUnits="userSpaceOnUse">
			<stop  offset="0.6" style="stop-color:#00AFCC"/>
			<stop  offset="1" style="stop-color:#2C8F99"/>
		</radialGradient>
		<path class="st3" d="M-401.6,294.9c0.2,0,0.4-0.1,0.5-0.2c0.3-0.3,0.3-0.8,0-1.1c-2.7-2.7-4.2-6.3-4.2-10
			c0-7.8,6.4-14.2,14.2-14.2s14.2,6.4,14.2,14.2c0,0.4,0.3,0.8,0.8,0.8s0.8-0.3,0.8-0.8c0-8.7-7.1-15.7-15.7-15.7
			c-8.7,0-15.7,7.1-15.7,15.7c0,4.2,1.6,8.2,4.6,11.1C-401.9,294.9-401.8,294.9-401.6,294.9L-401.6,294.9z"/>
		
			<radialGradient id="SVGID_5_" cx="-391.0386" cy="280.0447" r="17.8465" gradientTransform="matrix(1 0 0 1 0 4)" gradientUnits="userSpaceOnUse">
			<stop  offset="0.6" style="stop-color:#00AFCC"/>
			<stop  offset="1" style="stop-color:#2C8F99"/>
		</radialGradient>
		<path class="st4" d="M-373.2,284.4c0.4,0,0.8-0.3,0.8-0.8c0-10.2-8.3-18.6-18.6-18.6c-7.3,0-14,4.3-17,11.1c-0.2,0.4,0,0.8,0.4,1
			s0.8,0,1-0.4c2.7-6.2,8.9-10.2,15.6-10.2c9.4,0,17.1,7.6,17.1,17.1C-374,284-373.6,284.4-373.2,284.4L-373.2,284.4z"/>
	</g>
	<g>
		<path class="st5" d="M-397.9,287.9c0-0.2,0.1-0.4,0.3-0.6c0.2-0.2,0.4-0.2,0.7-0.2c0.3,0,0.5,0.1,0.7,0.2c0.2,0.2,0.3,0.4,0.3,0.6
			v7.8c0,0.2-0.1,0.4-0.3,0.6c-0.2,0.2-0.4,0.2-0.7,0.2c-0.3,0-0.5-0.1-0.7-0.2c-0.2-0.2-0.3-0.4-0.3-0.6V287.9z"/>
		<path class="st5" d="M-392.4,295.8c-0.1,0.2-0.2,0.3-0.4,0.5c-0.2,0.1-0.3,0.2-0.5,0.2s-0.5-0.1-0.7-0.2c-0.2-0.2-0.3-0.4-0.3-0.6
			s0-0.1,0-0.1v-0.1l2.5-7.4c0.1-0.2,0.2-0.5,0.4-0.6c0.2-0.2,0.4-0.2,0.7-0.2s0.5,0.1,0.7,0.2c0.2,0.2,0.3,0.4,0.4,0.6l2.5,7.4v0.1
			v0.1c0,0.2-0.1,0.5-0.3,0.6c-0.2,0.2-0.4,0.2-0.7,0.2c-0.3,0-0.3-0.1-0.5-0.2s-0.3-0.3-0.4-0.5l-0.5-1.3h-2.8L-392.4,295.8
			L-392.4,295.8z M-390.3,290.8c-0.1-0.2-0.1-0.4-0.1-0.6s-0.1-0.5-0.1-0.7c0,0.2-0.1,0.4-0.1,0.7s-0.1,0.4-0.1,0.6l-0.7,2.2h1.8
			L-390.3,290.8z"/>
		<path class="st5" d="M-378.9,296.2c-0.2,0.2-0.4,0.2-0.7,0.2c-0.3,0-0.5-0.1-0.6-0.2c-0.2-0.2-0.3-0.4-0.3-0.6v-3h-2.8v3
			c0,0.2-0.1,0.4-0.3,0.6c-0.2,0.2-0.4,0.2-0.7,0.2s-0.5-0.1-0.7-0.2c-0.2-0.2-0.3-0.4-0.3-0.6v-7.7c0-0.2,0.1-0.4,0.3-0.6
			c0.2-0.2,0.4-0.2,0.7-0.2s0.5,0.1,0.7,0.2c0.2,0.2,0.3,0.4,0.3,0.6v3h2.8v-3c0-0.2,0.1-0.4,0.3-0.6c0.2-0.2,0.4-0.2,0.6-0.2
			s0.5,0.1,0.6,0.2c0.2,0.2,0.3,0.4,0.3,0.6v7.7C-378.6,295.8-378.7,296-378.9,296.2L-378.9,296.2z"/>
		<path class="st5" d="M-374.9,295.8c-0.1,0.2-0.2,0.3-0.4,0.5c-0.2,0.1-0.3,0.2-0.5,0.2s-0.5-0.1-0.7-0.2c-0.2-0.2-0.3-0.4-0.3-0.6
			s0-0.1,0-0.1v-0.1l2.5-7.4c0.1-0.2,0.2-0.5,0.4-0.6c0.2-0.2,0.4-0.2,0.7-0.2s0.5,0.1,0.7,0.2c0.2,0.2,0.3,0.4,0.4,0.6l2.5,7.4v0.1
			v0.1c0,0.2-0.1,0.5-0.3,0.6c-0.2,0.2-0.4,0.2-0.7,0.2s-0.3-0.1-0.5-0.2s-0.3-0.3-0.4-0.5l-0.5-1.3h-2.8L-374.9,295.8L-374.9,295.8
			z M-372.9,290.8c-0.1-0.2-0.1-0.4-0.1-0.6s-0.1-0.5-0.1-0.7c0,0.2-0.1,0.4-0.1,0.7s-0.1,0.4-0.1,0.6l-0.7,2.2h1.8L-372.9,290.8
			L-372.9,290.8z"/>
	</g>
</g>
</svg>
