<?xml version="1.0" encoding="utf-8"?>
<!-- Generator: Adobe Illustrator 19.0.0, SVG Export Plug-In . SVG Version: 6.00 Build 0)  -->
<svg version="1.1" id="Layer_1" xmlns="http://www.w3.org/2000/svg" xmlns:xlink="http://www.w3.org/1999/xlink" x="0px" y="0px"
	 viewBox="-410 265 138 32" style="enable-background:new -410 265 138 32;" xml:space="preserve">
<style type="text/css">
	.st0{fill:#15190D;}
	.st1{fill:url(#SVGID_1_);}
	.st2{fill:url(#SVGID_2_);}
	.st3{fill:url(#SVGID_3_);}
	.st4{fill:url(#SVGID_4_);}
	.st5{fill:url(#SVGID_5_);}
	.st6{fill:#2C8F99;}
	.st7{fill:#231F20;}
</style>
<path class="st0" d="M-407.5,231.1v-8.7h-2.3v-1.9l2.3-0.3l0.8-4h2v4h3.3v2.2h-3.3v8.6c0,1.3,0.4,2.4,2,2.4c0.5,0,1-0.1,1.8-0.3v2.4
	c-0.7,0.1-1.5,0.2-2.1,0.2C-406.2,235.7-407.5,233.5-407.5,231.1z M-400,227.8c0-4.6,3-7.8,7.3-7.8s7.3,3.2,7.3,7.8v0.8h-11.7
	c0.2,2.9,2,4.7,4.4,4.7c2,0,3.5-1.1,4.1-2.9l2.7,0.6c-0.8,2.8-3.4,4.7-6.8,4.7C-397,235.7-400,232.4-400,227.8z M-392.7,222.4
	c-2.3,0-3.9,1.5-4.4,4.1h8.7C-388.7,223.9-390.4,222.4-392.7,222.4z M-384.1,220.3h2.6c0.2,0.7,0.3,1.4,0.4,2.1
	c1.1-1.4,2.4-2.3,4.2-2.3l0.3,2.5c-2.7-0.1-4.4,1.6-4.4,4.4v8.6h-2.8v-10.8C-383.9,222.5-384,221.4-384.1,220.3z M-375.9,220.3h2.6
	c0.2,0.7,0.3,1.4,0.4,2.1c1.1-1.4,2.4-2.3,4.2-2.3l0.3,2.5c-2.7-0.1-4.4,1.6-4.4,4.4v8.6h-2.8v-10.8
	C-375.7,222.5-375.7,221.4-375.9,220.3z M-355.6,235.4h-2.5c-0.1-0.6-0.4-1.5-0.4-2.1c-1.1,1.4-2.6,2.3-4.6,2.3
	c-3.1,0-5.3-1.9-5.3-4.7c0-2.6,2.3-4.2,6.3-4.7l3.5-0.4v-0.8c0-1.6-1.2-2.8-2.9-2.8c-1.6,0-2.9,0.8-3.3,2.1l-2.7-0.5
	c0.7-2.5,3-4,6.1-4c3.5,0,5.8,2.2,5.8,5.6v5.5C-355.7,233.2-355.7,234.3-355.6,235.4z M-362.6,233.3c2.5,0,4-1.6,4-4.1v-1.3
	l-3.4,0.4c-2.2,0.2-3.5,1.1-3.5,2.6C-365.5,232.4-364.3,233.3-362.6,233.3z M-353.5,226.2V224h19.8v2.2H-353.5z M-330,231.1v-8.7
	h-2.3v-1.9l2.3-0.3l0.8-4h2v4h3.3v2.2h-3.3v8.6c0,1.3,0.4,2.4,2,2.4c0.5,0,1-0.1,1.8-0.3v2.4c-0.7,0.1-1.5,0.2-2.1,0.2
	C-328.7,235.7-330,233.5-330,231.1z M-308.2,227.8c0,4.6-3,7.9-7.3,7.9c-4.3,0-7.3-3.2-7.3-7.9c0-4.6,3-7.8,7.3-7.8
	C-311.2,220-308.2,223.2-308.2,227.8z M-320,227.8c0,3.4,1.8,5.5,4.5,5.5c2.7,0,4.5-2.1,4.5-5.5c0-3.3-1.7-5.4-4.5-5.4
	C-318.2,222.4-320,224.5-320,227.8z M-306.8,220.3h2.5c0.2,0.7,0.3,1.4,0.4,2.1c1.1-1.4,2.4-2.3,4.2-2.3l0.3,2.5
	c-2.7-0.1-4.4,1.6-4.4,4.4v8.6h-2.8v-10.8C-306.6,222.5-306.6,221.4-306.8,220.3z M-293.7,236.3l0.4-0.9l-5.9-15.2h2.9l4.4,11.6
	l4.4-11.6h2.9l-6.4,16.5c-0.9,2.4-2,5-5.6,5c-0.7,0-1.6-0.1-2.3-0.3v-2.4c1,0.3,1.6,0.4,2.1,0.4C-295,239.5-294.3,237.8-293.7,236.3
	z"/>
<g>
	<g>
		
			<radialGradient id="SVGID_1_" cx="-390.9386" cy="279.9553" r="17.8465" gradientTransform="matrix(1 0 0 -1 0 564)" gradientUnits="userSpaceOnUse">
			<stop  offset="0.6" style="stop-color:#00AFCC"/>
			<stop  offset="1" style="stop-color:#2C8F99"/>
		</radialGradient>
		<path class="st1" d="M-396.8,284.4c0.4,0,0.8-0.3,0.8-0.8c0-2.9,2.3-5.2,5.2-5.2c2.9,0,5.2,2.3,5.2,5.2c0,0.4,0.3,0.8,0.8,0.8
			s0.8-0.3,0.8-0.8c0-3.7-3-6.7-6.7-6.7s-6.7,3-6.7,6.7C-397.6,284-397.3,284.4-396.8,284.4L-396.8,284.4z"/>
		
			<radialGradient id="SVGID_2_" cx="-390.9386" cy="279.9553" r="17.8465" gradientTransform="matrix(1 0 0 -1 0 564)" gradientUnits="userSpaceOnUse">
			<stop  offset="0.6" style="stop-color:#00AFCC"/>
			<stop  offset="1" style="stop-color:#2C8F99"/>
		</radialGradient>
		<path class="st2" d="M-381.9,284.4c0.4,0,0.8-0.3,0.8-0.8c0-5.4-4.4-9.8-9.8-9.8c-3.9,0-7.4,2.3-9,5.9c-0.2,0.4,0,0.8,0.4,1
			c0.4,0.2,0.8,0,1-0.4c1.3-3,4.3-5,7.6-5c4.5,0,8.2,3.7,8.2,8.2C-382.7,284-382.3,284.4-381.9,284.4L-381.9,284.4z"/>
		
			<radialGradient id="SVGID_3_" cx="-390.9386" cy="279.9553" r="17.8465" gradientTransform="matrix(1 0 0 -1 0 564)" gradientUnits="userSpaceOnUse">
			<stop  offset="0.6" style="stop-color:#00AFCC"/>
			<stop  offset="1" style="stop-color:#2C8F99"/>
		</radialGradient>
		<path class="st3" d="M-402.2,288.4c0.1,0,0.2,0,0.2,0c0.4-0.1,0.6-0.6,0.5-1c-0.4-1.2-0.7-2.5-0.7-3.8c0-6.2,5-11.2,11.2-11.2
			c6.2,0,11.2,5,11.2,11.2c0,6.2,0.3,0.8,0.8,0.8s0.8-0.3,0.8-0.8c0-7-5.7-12.7-12.7-12.7c-7,0-12.7,5.7-12.7,12.7
			c0,1.5,0.2,2.9,0.7,4.3C-402.8,288.2-402.5,288.4-402.2,288.4L-402.2,288.4z"/>
		
			<radialGradient id="SVGID_4_" cx="-390.9386" cy="279.9553" r="17.8465" gradientTransform="matrix(1 0 0 -1 0 564)" gradientUnits="userSpaceOnUse">
			<stop  offset="0.6" style="stop-color:#00AFCC"/>
			<stop  offset="1" style="stop-color:#2C8F99"/>
		</radialGradient>
		<path class="st4" d="M-401.5,294.9c0.2,0,0.4-0.1,0.5-0.2c0.3-0.3,0.3-0.8,0-1.1c-2.7-2.7-4.2-6.3-4.2-10
			c0-7.8,6.4-14.2,14.2-14.2s14.2,6.4,14.2,14.2c0,0.4,0.3,0.8,0.8,0.8s0.8-0.3,0.8-0.8c0-8.7-7.1-15.7-15.7-15.7
			c-8.7,0-15.7,7.1-15.7,15.7c0,4.2,1.6,8.2,4.6,11.1C-401.8,294.9-401.7,294.9-401.5,294.9L-401.5,294.9z"/>
		
			<radialGradient id="SVGID_5_" cx="-390.9386" cy="279.9553" r="17.8465" gradientTransform="matrix(1 0 0 -1 0 564)" gradientUnits="userSpaceOnUse">
			<stop  offset="0.6" style="stop-color:#00AFCC"/>
			<stop  offset="1" style="stop-color:#2C8F99"/>
		</radialGradient>
		<path class="st5" d="M-373.1,284.4c0.4,0,0.8-0.3,0.8-0.8c0-10.2-8.3-18.6-18.6-18.6c-7.3,0-14,4.3-17,11.1c-0.2,0.4,0,0.8,0.4,1
			c0.4,0.2,0.8,0,1-0.4c2.7-6.2,8.9-10.2,15.6-10.2c9.4,0,17.1,7.6,17.1,17.1C-373.9,284-373.5,284.4-373.1,284.4L-373.1,284.4z"/>
	</g>
	<g>
		<path class="st6" d="M-397.8,287.9c0-0.2,0.1-0.4,0.3-0.6c0.2-0.2,0.4-0.2,0.7-0.2c0.3,0,0.5,0.1,0.7,0.2c0.2,0.2,0.3,0.4,0.3,0.6
			v7.8c0,0.2-0.1,0.4-0.3,0.6c-0.2,0.2-0.4,0.2-0.7,0.2c-0.3,0-0.5-0.1-0.7-0.2c-0.2-0.2-0.3-0.4-0.3-0.6V287.9z"/>
		<path class="st6" d="M-392.3,295.8c-0.1,0.2-0.2,0.3-0.4,0.5c-0.2,0.1-0.3,0.2-0.5,0.2c-0.2,0-0.5-0.1-0.7-0.2
			c-0.2-0.2-0.3-0.4-0.3-0.6c0-0.2,0-0.1,0-0.1s0-0.1,0-0.1l2.5-7.4c0.1-0.2,0.2-0.5,0.4-0.6c0.2-0.2,0.4-0.2,0.7-0.2
			s0.5,0.1,0.7,0.2c0.2,0.2,0.3,0.4,0.4,0.6l2.5,7.4c0,0,0,0.1,0,0.1s0,0.1,0,0.1c0,0.2-0.1,0.5-0.3,0.6c-0.2,0.2-0.4,0.2-0.7,0.2
			c-0.3,0-0.3-0.1-0.5-0.2c-0.2-0.1-0.3-0.3-0.4-0.5l-0.5-1.3h-2.8L-392.3,295.8L-392.3,295.8z M-390.2,290.8
			c-0.1-0.2-0.1-0.4-0.1-0.6s-0.1-0.5-0.1-0.7c0,0.2-0.1,0.4-0.1,0.7s-0.1,0.4-0.1,0.6l-0.7,2.2h1.8L-390.2,290.8z"/>
		<path class="st6" d="M-378.8,296.2c-0.2,0.2-0.4,0.2-0.7,0.2c-0.3,0-0.5-0.1-0.6-0.2c-0.2-0.2-0.3-0.4-0.3-0.6v-3h-2.8v3
			c0,0.2-0.1,0.4-0.3,0.6c-0.2,0.2-0.4,0.2-0.7,0.2s-0.5-0.1-0.7-0.2c-0.2-0.2-0.3-0.4-0.3-0.6v-7.7c0-0.2,0.1-0.4,0.3-0.6
			c0.2-0.2,0.4-0.2,0.7-0.2s0.5,0.1,0.7,0.2c0.2,0.2,0.3,0.4,0.3,0.6v3h2.8v-3c0-0.2,0.1-0.4,0.3-0.6c0.2-0.2,0.4-0.2,0.6-0.2
			c0.2,0,0.5,0.1,0.6,0.2c0.2,0.2,0.3,0.4,0.3,0.6v7.7C-378.5,295.8-378.6,296-378.8,296.2L-378.8,296.2z"/>
		<path class="st6" d="M-374.8,295.8c-0.1,0.2-0.2,0.3-0.4,0.5c-0.2,0.1-0.3,0.2-0.5,0.2c-0.2,0-0.5-0.1-0.7-0.2
			c-0.2-0.2-0.3-0.4-0.3-0.6c0-0.2,0-0.1,0-0.1s0-0.1,0-0.1l2.5-7.4c0.1-0.2,0.2-0.5,0.4-0.6c0.2-0.2,0.4-0.2,0.7-0.2
			s0.5,0.1,0.7,0.2c0.2,0.2,0.3,0.4,0.4,0.6l2.5,7.4c0,0,0,0.1,0,0.1s0,0.1,0,0.1c0,0.2-0.1,0.5-0.3,0.6c-0.2,0.2-0.4,0.2-0.7,0.2
			s-0.3-0.1-0.5-0.2c-0.2-0.1-0.3-0.3-0.4-0.5l-0.5-1.3h-2.8L-374.8,295.8L-374.8,295.8z M-372.8,290.8c-0.1-0.2-0.1-0.4-0.1-0.6
			s-0.1-0.5-0.1-0.7c0,0.2-0.1,0.4-0.1,0.7s-0.1,0.4-0.1,0.6l-0.7,2.2h1.8L-372.8,290.8L-372.8,290.8z"/>
	</g>
</g>
<g>
	<path class="st7" d="M-366.7,274.7c0-0.1,0.1-0.3,0.2-0.4c0.1-0.1,0.3-0.2,0.4-0.2s0.3,0.1,0.4,0.2s0.2,0.3,0.2,0.4v5.2
		c0,0.1-0.1,0.3-0.2,0.4s-0.3,0.2-0.4,0.2s-0.3-0.1-0.4-0.2c-0.1-0.1-0.2-0.3-0.2-0.4V274.7z"/>
	<path class="st7" d="M-363.1,279.9c0,0.1-0.1,0.3-0.1,0.4c-0.1,0.1-0.3,0.1-0.4,0.1s-0.4-0.1-0.4-0.1c-0.1-0.1-0.1-0.2-0.1-0.4
		v-2.6c0-0.1,0-0.2,0-0.3s0-0.1-0.1-0.1c-0.1-0.1-0.1-0.1-0.1-0.2s0-0.1,0-0.1c0-0.1,0.1-0.3,0.2-0.4c0.1-0.1,0.3-0.1,0.4-0.1
		c0.2,0,0.3,0.1,0.4,0.3c0.2-0.1,0.4-0.2,0.6-0.3c0.2-0.1,0.4-0.1,0.6-0.1c0.6,0,1,0.2,1.2,0.5c0.3,0.3,0.4,0.7,0.4,1.2v2.3
		c0,0.1-0.1,0.3-0.2,0.4c-0.1,0.1-0.3,0.1-0.4,0.1s-0.3-0.1-0.4-0.1c-0.1-0.1-0.2-0.2-0.2-0.4v-2.3c0-0.2-0.1-0.4-0.1-0.5
		c-0.1-0.1-0.3-0.2-0.4-0.2c-0.2,0-0.4,0.1-0.7,0.2c0,0,0,0.1,0,0.1c0,0,0,0.1,0,0.1L-363.1,279.9L-363.1,279.9z"/>
	<path class="st7" d="M-359.5,275.2c0-0.1,0.1-0.3,0.2-0.4c0.1-0.1,0.3-0.1,0.4-0.1c0.2,0,0.3,0.1,0.4,0.2c0.1,0.1,0.2,0.2,0.2,0.4
		v1h0.6c0.2,0,0.3,0.1,0.4,0.1c0.1,0.1,0.2,0.2,0.2,0.4c0,0.1-0.1,0.3-0.2,0.4s-0.3,0.1-0.4,0.1h-0.6v1.3c0,0.2,0,0.3,0,0.4
		s0,0.2,0.1,0.3c0,0.1,0.1,0.1,0.1,0.1s0.1,0.1,0.3,0.1s0.1,0,0.1,0s0,0,0.1,0c0.3,0,0.5,0,0.6,0.1c0.1,0.1,0.1,0.2,0.1,0.4
		s0,0.2-0.1,0.3s-0.1,0.1-0.2,0.2s-0.2,0.1-0.3,0.1c-0.1,0-0.2,0-0.3,0c-0.3,0-0.6,0-0.8-0.1s-0.4-0.2-0.5-0.4
		c-0.1-0.2-0.2-0.3-0.3-0.6c-0.1-0.2-0.1-0.5-0.1-0.8L-359.5,275.2L-359.5,275.2z"/>
	<path class="st7" d="M-354.6,278.7c-0.1,0-0.2,0-0.3,0c-0.1,0-0.2,0-0.3,0v0.3c0,0.1,0.1,0.3,0.2,0.4c0.1,0.1,0.3,0.1,0.5,0.1
		c0.3,0,0.3,0,0.4-0.1c0.1,0,0.3-0.1,0.4-0.1c0,0,0.1,0,0.1,0c0,0,0.1,0,0.2,0s0.2,0,0.3,0.1c0.1,0,0.1,0.1,0.2,0.1
		c0,0.1,0.1,0.1,0.1,0.1c0,0.1,0,0.1,0,0.2c0,0.1-0.1,0.3-0.2,0.4c-0.1,0.1-0.3,0.2-0.4,0.2c-0.2,0.1-0.4,0.1-0.6,0.1
		c-0.2,0-0.4,0-0.5,0c-0.3,0-0.6,0-0.8-0.1c-0.2-0.1-0.4-0.2-0.6-0.3c-0.1-0.1-0.3-0.3-0.4-0.5c-0.1-0.2-0.1-0.4-0.1-0.6v-1.5
		c0-0.2,0-0.4,0.1-0.6c0.1-0.2,0.2-0.4,0.4-0.5c0.2-0.1,0.4-0.3,0.6-0.3c0.2-0.1,0.5-0.1,0.8-0.1c0.6,0,1,0.1,1.3,0.4
		c0.3,0.3,0.4,0.6,0.4,1.1c0,0.4-0.1,0.8-0.4,1C-353.6,278.6-354,278.7-354.6,278.7L-354.6,278.7z M-354.1,277.3
		c0-0.2-0.1-0.3-0.1-0.4c-0.1-0.1-0.2-0.1-0.4-0.1c-0.2,0-0.4,0.1-0.5,0.1c-0.1,0.1-0.2,0.3-0.2,0.4v0.4c0.1,0,0.3,0,0.4,0
		c0.1,0,0.2,0,0.3,0c0.2,0,0.3,0,0.4-0.1C-354.1,277.5-354.1,277.4-354.1,277.3L-354.1,277.3z"/>
	<path class="st7" d="M-350,277c-0.1,0-0.2,0-0.3,0c-0.1,0-0.1,0-0.2,0s-0.1,0-0.2,0c-0.1,0-0.1,0-0.2,0.1c0,0,0,0.1,0,0.1
		c0,0,0,0.1,0,0.1v2.6c0,0.1-0.1,0.3-0.2,0.4c-0.1,0.1-0.3,0.2-0.4,0.2c-0.2,0-0.3-0.1-0.4-0.2c-0.1-0.1-0.2-0.2-0.2-0.4v-2.6
		c0-0.1,0-0.2,0-0.3c0-0.1,0-0.1-0.1-0.2c0-0.1-0.1-0.1-0.1-0.1c0,0,0-0.1,0-0.2c0-0.2,0.1-0.3,0.2-0.4c0.1-0.1,0.3-0.1,0.4-0.1
		s0.2,0,0.3,0.1c0.1,0.1,0.1,0.1,0.2,0.2c0.2-0.1,0.4-0.2,0.6-0.3c0.2-0.1,0.4-0.1,0.5-0.1c0.3,0,0.4,0.1,0.6,0.1
		c0.1,0.1,0.1,0.2,0.1,0.4s-0.1,0.3-0.2,0.4C-349.7,276.9-349.8,276.9-350,277L-350,277z"/>
	<path class="st7" d="M-347.3,279.9c0,0.1-0.1,0.3-0.1,0.4c-0.1,0.1-0.3,0.1-0.4,0.1c-0.2,0-0.4-0.1-0.4-0.1
		c-0.1-0.1-0.1-0.2-0.1-0.4v-2.6c0-0.1,0-0.2,0-0.3s0-0.1-0.1-0.1c-0.1-0.1-0.1-0.1-0.1-0.2s0-0.1,0-0.1c0-0.1,0.1-0.3,0.2-0.4
		c0.1-0.1,0.3-0.1,0.4-0.1c0.2,0,0.3,0.1,0.4,0.3c0.2-0.1,0.4-0.2,0.6-0.3c0.2-0.1,0.4-0.1,0.6-0.1c0.6,0,1,0.2,1.2,0.5
		s0.4,0.7,0.4,1.2v2.3c0,0.1-0.1,0.3-0.2,0.4c-0.1,0.1-0.3,0.1-0.4,0.1c-0.2,0-0.3-0.1-0.4-0.1c-0.1-0.1-0.2-0.2-0.2-0.4v-2.3
		c0-0.2-0.1-0.4-0.1-0.5c-0.1-0.1-0.3-0.2-0.4-0.2c-0.2,0-0.4,0.1-0.7,0.2c0,0,0,0.1,0,0.1s0,0.1,0,0.1L-347.3,279.9L-347.3,279.9z"
		/>
	<path class="st7" d="M-340.4,279.3c0,0.1,0,0.1,0,0.1s0,0.1,0.1,0.1c0,0,0.1,0,0.1,0c0,0,0.1,0,0.1,0c0.1,0.1,0.2,0.2,0.2,0.3
		c0,0.2-0.1,0.3-0.1,0.3s-0.3,0.1-0.5,0.1c-0.2,0-0.3,0-0.4-0.1c-0.1-0.1-0.2-0.1-0.3-0.3c-0.2,0.1-0.3,0.2-0.5,0.3
		c-0.2,0.1-0.4,0.1-0.6,0.1c-0.5,0-0.9-0.1-1.2-0.4s-0.4-0.6-0.4-1l0,0c0-0.9,0.6-1.4,1.7-1.4s0.2,0,0.3,0s0.2,0,0.3,0.1v-0.3
		c0-0.4-0.2-0.6-0.7-0.6c-0.4,0-0.2,0-0.3,0s-0.2,0.1-0.3,0.1c0,0-0.1,0-0.1,0.1c-0.1,0-0.1,0-0.2,0s-0.2,0-0.2-0.1
		c-0.1,0-0.1-0.1-0.2-0.1c0-0.1-0.1-0.1-0.1-0.2c0-0.1,0-0.1,0-0.2c0-0.1,0.1-0.3,0.1-0.3s0.2-0.2,0.3-0.2c0.1-0.1,0.3-0.1,0.5-0.1
		c0.2,0,0.4,0,0.5,0c0.6,0,1.1,0.1,1.4,0.4c0.3,0.3,0.4,0.8,0.4,1.3V279.3L-340.4,279.3z M-342.2,278.5c-0.1,0-0.2,0-0.3,0
		c-0.1,0-0.1,0.1-0.2,0.1s-0.1,0.1-0.1,0.2s0,0.1,0,0.2l0,0c0,0.2,0.1,0.3,0.1,0.3s0.2,0.1,0.4,0.1c0.2,0,0.2,0,0.3-0.1
		c0.1,0,0.2-0.1,0.3-0.2v-0.6C-341.8,278.6-342,278.6-342.2,278.5L-342.2,278.5z"/>
	<path class="st7" d="M-339.2,275.2c0-0.1,0.1-0.3,0.2-0.4c0.1-0.1,0.3-0.1,0.4-0.1c0.2,0,0.3,0.1,0.4,0.2c0.1,0.1,0.2,0.2,0.2,0.4
		v1h0.6c0.2,0,0.3,0.1,0.4,0.1c0.1,0.1,0.2,0.2,0.2,0.4c0,0.1-0.1,0.3-0.2,0.4s-0.3,0.1-0.4,0.1h-0.6v1.3c0,0.2,0,0.3,0,0.4
		s0,0.2,0.1,0.3c0,0.1,0.1,0.1,0.1,0.1s0.1,0.1,0.3,0.1s0.1,0,0.1,0s0,0,0.1,0c0.3,0,0.5,0,0.6,0.1c0.1,0.1,0.1,0.2,0.1,0.4
		s0,0.2-0.1,0.3s-0.1,0.1-0.2,0.2s-0.2,0.1-0.3,0.1c-0.1,0-0.2,0-0.3,0c-0.3,0-0.6,0-0.8-0.1s-0.4-0.2-0.5-0.4
		c-0.1-0.2-0.2-0.3-0.3-0.6c-0.1-0.2-0.1-0.5-0.1-0.8L-339.2,275.2L-339.2,275.2z"/>
	<path class="st7" d="M-334.7,274.7c0,0.2-0.1,0.3-0.2,0.4c-0.1,0.1-0.3,0.2-0.5,0.2c-0.2,0-0.4-0.1-0.5-0.2
		c-0.1-0.1-0.2-0.3-0.2-0.4c0-0.2,0.1-0.3,0.2-0.4c0.1-0.1,0.3-0.2,0.5-0.2c0.2,0,0.4,0.1,0.5,0.2
		C-334.7,274.4-334.7,274.6-334.7,274.7z M-334.8,279.9c0,0.1-0.1,0.3-0.2,0.4c-0.1,0.1-0.3,0.2-0.4,0.2c-0.2,0-0.3-0.1-0.4-0.2
		c-0.1-0.1-0.2-0.2-0.2-0.4v-3.5c0-0.1,0.1-0.3,0.2-0.4c0.1-0.1,0.3-0.2,0.4-0.2c0.2,0,0.3,0.1,0.4,0.2c0.1,0.1,0.2,0.2,0.2,0.4
		V279.9z"/>
	<path class="st7" d="M-331.8,280.4c-0.3,0-0.6-0.1-0.8-0.1c-0.2-0.1-0.4-0.2-0.6-0.3c-0.2-0.1-0.3-0.3-0.4-0.5
		c-0.1-0.2-0.1-0.4-0.1-0.6v-1.3c0-0.2,0-0.4,0.1-0.6c0.1-0.2,0.2-0.4,0.4-0.5c0.2-0.1,0.4-0.3,0.6-0.3c0.2-0.1,0.5-0.1,0.8-0.1
		c0.3,0,0.6,0.1,0.8,0.1c0.2,0.1,0.4,0.2,0.6,0.3c0.2,0.1,0.3,0.3,0.4,0.5c0.1,0.2,0.1,0.4,0.1,0.6v1.3c0,0.2,0,0.4-0.1,0.6
		c-0.1,0.2-0.2,0.4-0.4,0.5c-0.2,0.1-0.4,0.3-0.6,0.3C-331.2,280.4-331.5,280.4-331.8,280.4z M-331.8,279.4c0.2,0,0.4-0.1,0.5-0.2
		s0.2-0.3,0.2-0.4v-1.3c0-0.2-0.1-0.3-0.2-0.4s-0.3-0.2-0.5-0.2c-0.2,0-0.4,0.1-0.5,0.2s-0.2,0.3-0.2,0.4v1.3c0,0.2,0.1,0.3,0.2,0.4
		S-332,279.4-331.8,279.4z"/>
	<path class="st7" d="M-327.7,279.9c0,0.1-0.1,0.3-0.1,0.4c-0.1,0.1-0.3,0.1-0.4,0.1c-0.2,0-0.4-0.1-0.4-0.1s-0.1-0.2-0.1-0.4v-2.6
		c0-0.1,0-0.2,0-0.3c0,0,0-0.1-0.1-0.1c-0.1-0.1-0.1-0.1-0.1-0.2s0-0.1,0-0.1c0-0.1,0.1-0.3,0.2-0.4c0.1-0.1,0.3-0.1,0.4-0.1
		s0.3,0.1,0.4,0.3c0.2-0.1,0.4-0.2,0.6-0.3c0.2-0.1,0.4-0.1,0.6-0.1c0.6,0,1,0.2,1.2,0.5s0.4,0.7,0.4,1.2v2.3c0,0.1-0.1,0.3-0.2,0.4
		c-0.1,0.1-0.3,0.1-0.4,0.1c-0.2,0-0.3-0.1-0.4-0.1c-0.1-0.1-0.2-0.2-0.2-0.4v-2.3c0-0.2-0.1-0.4-0.1-0.5c-0.1-0.1-0.3-0.2-0.4-0.2
		c-0.2,0-0.4,0.1-0.7,0.2c0,0,0,0.1,0,0.1c0,0,0,0.1,0,0.1L-327.7,279.9L-327.7,279.9z"/>
	<path class="st7" d="M-320.8,279.3c0,0.1,0,0.1,0,0.1s0,0.1,0.1,0.1c0,0,0.1,0,0.1,0c0,0,0.1,0,0.1,0c0.1,0.1,0.2,0.2,0.2,0.3
		c0,0.2-0.1,0.3-0.1,0.3s-0.3,0.1-0.5,0.1c-0.2,0-0.3,0-0.4-0.1c-0.1-0.1-0.2-0.1-0.3-0.3c-0.2,0.1-0.3,0.2-0.5,0.3
		c-0.2,0.1-0.4,0.1-0.6,0.1c-0.5,0-0.9-0.1-1.2-0.4s-0.4-0.6-0.4-1l0,0c0-0.9,0.6-1.4,1.7-1.4s0.2,0,0.3,0s0.2,0,0.3,0.1v-0.3
		c0-0.4-0.2-0.6-0.7-0.6s-0.2,0-0.3,0c-0.1,0-0.2,0.1-0.3,0.1c0,0-0.1,0-0.1,0.1c-0.1,0-0.1,0-0.2,0c-0.1,0-0.2,0-0.2-0.1
		c-0.1,0-0.1-0.1-0.2-0.1c0-0.1-0.1-0.1-0.1-0.2s0-0.1,0-0.2c0-0.1,0.1-0.3,0.1-0.3c0.1-0.1,0.2-0.2,0.3-0.2
		c0.1-0.1,0.3-0.1,0.5-0.1c0.2,0,0.4,0,0.5,0c0.6,0,1.1,0.1,1.4,0.4c0.3,0.3,0.4,0.8,0.4,1.3V279.3L-320.8,279.3z M-322.6,278.5
		c-0.1,0-0.2,0-0.3,0c-0.1,0-0.1,0.1-0.2,0.1s-0.1,0.1-0.1,0.2s0,0.1,0,0.2l0,0c0,0.2,0.1,0.3,0.1,0.3c0.1,0.1,0.2,0.1,0.4,0.1
		c0.2,0,0.2,0,0.3-0.1c0.1,0,0.2-0.1,0.3-0.2v-0.6C-322.2,278.6-322.4,278.6-322.6,278.5L-322.6,278.5z"/>
	<path class="st7" d="M-318.8,280.4c-0.1,0-0.2,0-0.3,0c-0.1,0-0.2-0.1-0.3-0.1c-0.1-0.1-0.1-0.2-0.2-0.3s-0.1-0.3-0.1-0.5v-4.8
		c0-0.1,0.1-0.3,0.2-0.4c0.1-0.1,0.3-0.2,0.4-0.2c0.2,0,0.3,0.1,0.4,0.2c0.1,0.1,0.2,0.2,0.2,0.4v4.7c0,0.1,0,0.2,0,0.2
		s0.1,0.1,0.1,0.2c0.1,0.1,0.1,0.1,0.1,0.1c0,0,0.1,0.1,0.1,0.2c0,0.2-0.1,0.3-0.2,0.4C-318.4,280.4-318.6,280.4-318.8,280.4
		L-318.8,280.4z"/>
	<path class="st7" d="M-313.8,280c-0.1,0.1-0.1,0.2-0.3,0.3s-0.2,0.1-0.3,0.1c-0.2,0-0.3-0.1-0.4-0.1s-0.2-0.2-0.2-0.4
		c0-0.2,0-0.1,0-0.1s0-0.1,0-0.1l1.7-5c0.1-0.2,0.1-0.3,0.3-0.4s0.3-0.2,0.5-0.2c0.2,0,0.4,0.1,0.5,0.2c0.1,0.1,0.2,0.3,0.3,0.4
		l1.7,5c0,0,0,0.1,0,0.1c0,0,0,0.1,0,0.1c0,0.2-0.1,0.3-0.2,0.4c-0.1,0.1-0.3,0.1-0.4,0.1s-0.2,0-0.3-0.1s-0.2-0.2-0.3-0.3l-0.3-0.9
		h-1.9L-313.8,280L-313.8,280z M-312.4,276.6c0-0.1-0.1-0.3-0.1-0.4c0-0.1-0.1-0.3-0.1-0.4c0,0.1,0,0.3-0.1,0.4
		c0,0.2-0.1,0.3-0.1,0.4l-0.4,1.5h1.2L-312.4,276.6L-312.4,276.6z"/>
	<path class="st7" d="M-309.5,277.2c0-0.4,0.1-0.7,0.4-1c0.3-0.3,0.7-0.4,1.3-0.4c0.6,0,0.3,0,0.4,0c0.2,0,0.3,0.1,0.4,0.1
		c0.1,0.1,0.3,0.1,0.4,0.2c0.1,0.1,0.1,0.2,0.1,0.4c0,0.1,0,0.2-0.1,0.2c0,0.1-0.1,0.1-0.1,0.1s-0.1,0.1-0.2,0.1c-0.1,0-0.1,0-0.2,0
		c-0.1,0-0.1,0-0.2,0c-0.1,0-0.1,0-0.2-0.1c-0.1,0-0.1,0-0.2-0.1c-0.1,0-0.2,0-0.3,0c-0.3,0-0.5,0.1-0.5,0.3c0,0.2,0,0.1,0.1,0.2
		s0.1,0.1,0.2,0.1c0.2,0.1,0.3,0.1,0.5,0.2c0.2,0.1,0.4,0.1,0.6,0.3c0.2,0.1,0.3,0.3,0.4,0.4c0.1,0.2,0.2,0.4,0.2,0.7
		c0,0.4-0.1,0.8-0.4,1c-0.3,0.3-0.7,0.4-1.3,0.4c-0.6,0-0.3,0-0.5,0c-0.2,0-0.4-0.1-0.5-0.1c-0.2-0.1-0.3-0.1-0.4-0.2
		s-0.2-0.2-0.2-0.3s0.1-0.3,0.2-0.4c0.1-0.1,0.3-0.2,0.4-0.2c0.2,0,0.1,0,0.2,0c0.1,0,0.1,0.1,0.2,0.1c0.1,0,0.2,0.1,0.3,0.1
		c0.1,0,0.2,0,0.3,0c0.2,0,0.3,0,0.4-0.1c0.1-0.1,0.1-0.1,0.1-0.3c0-0.1,0-0.1-0.1-0.2s-0.1-0.1-0.1-0.1c-0.1-0.1-0.2-0.1-0.3-0.1
		s-0.3-0.1-0.4-0.1c-0.1-0.1-0.3-0.1-0.4-0.2c-0.1-0.1-0.3-0.1-0.4-0.3c-0.1-0.1-0.2-0.2-0.3-0.4
		C-309.5,277.6-309.5,277.4-309.5,277.2L-309.5,277.2z"/>
	<path class="st7" d="M-305.6,277.2c0-0.4,0.1-0.7,0.4-1c0.3-0.3,0.7-0.4,1.3-0.4c0.6,0,0.3,0,0.4,0c0.2,0,0.3,0.1,0.4,0.1
		s0.3,0.1,0.4,0.2c0.1,0.1,0.1,0.2,0.1,0.4c0,0.1,0,0.2-0.1,0.2c0,0.1-0.1,0.1-0.1,0.1s-0.1,0.1-0.2,0.1c-0.1,0-0.1,0-0.2,0
		c-0.1,0-0.1,0-0.2,0c-0.1,0-0.1,0-0.2-0.1c-0.1,0-0.1,0-0.2-0.1c-0.1,0-0.2,0-0.3,0c-0.3,0-0.5,0.1-0.5,0.3c0,0.2,0,0.1,0.1,0.2
		s0.1,0.1,0.2,0.1c0.2,0.1,0.3,0.1,0.5,0.2c0.2,0.1,0.4,0.1,0.6,0.3c0.2,0.1,0.3,0.3,0.4,0.4c0.1,0.2,0.2,0.4,0.2,0.7
		c0,0.4-0.1,0.8-0.4,1c-0.3,0.3-0.7,0.4-1.3,0.4c-0.6,0-0.3,0-0.5,0c-0.2,0-0.4-0.1-0.5-0.1c-0.2-0.1-0.3-0.1-0.4-0.2
		s-0.2-0.2-0.2-0.3s0.1-0.3,0.2-0.4s0.3-0.2,0.4-0.2c0.2,0,0.1,0,0.2,0c0.1,0,0.1,0.1,0.2,0.1s0.2,0.1,0.3,0.1c0.1,0,0.2,0,0.3,0
		c0.2,0,0.3,0,0.4-0.1c0.1-0.1,0.1-0.1,0.1-0.3c0-0.1,0-0.1-0.1-0.2s-0.1-0.1-0.1-0.1c-0.1-0.1-0.2-0.1-0.3-0.1
		c-0.1,0-0.3-0.1-0.4-0.1c-0.1-0.1-0.3-0.1-0.4-0.2c-0.1-0.1-0.3-0.1-0.4-0.3c-0.1-0.1-0.2-0.2-0.3-0.4
		C-305.6,277.6-305.6,277.4-305.6,277.2L-305.6,277.2z"/>
	<path class="st7" d="M-299.7,280.4c-0.3,0-0.6-0.1-0.8-0.1c-0.2-0.1-0.4-0.2-0.6-0.3s-0.3-0.3-0.4-0.5c-0.1-0.2-0.1-0.4-0.1-0.6
		v-1.3c0-0.2,0-0.4,0.1-0.6s0.2-0.4,0.4-0.5c0.2-0.1,0.4-0.3,0.6-0.3c0.2-0.1,0.5-0.1,0.8-0.1s0.6,0.1,0.8,0.1
		c0.2,0.1,0.4,0.2,0.6,0.3c0.2,0.1,0.3,0.3,0.4,0.5c0.1,0.2,0.1,0.4,0.1,0.6v1.3c0,0.2,0,0.4-0.1,0.6c-0.1,0.2-0.2,0.4-0.4,0.5
		s-0.4,0.3-0.6,0.3S-299.4,280.4-299.7,280.4z M-299.7,279.4c0.2,0,0.4-0.1,0.5-0.2c0.1-0.1,0.2-0.3,0.2-0.4v-1.3
		c0-0.2-0.1-0.3-0.2-0.4c-0.1-0.1-0.3-0.2-0.5-0.2s-0.4,0.1-0.5,0.2c-0.1,0.1-0.2,0.3-0.2,0.4v1.3c0,0.2,0.1,0.3,0.2,0.4
		C-300.1,279.3-300,279.4-299.7,279.4z"/>
	<path class="st7" d="M-297,277.6c0-0.2,0-0.4,0.1-0.6c0.1-0.2,0.2-0.4,0.3-0.5c0.1-0.1,0.3-0.3,0.6-0.4c0.2-0.1,0.5-0.1,0.8-0.1
		c0.3,0,0.3,0,0.4,0c0.2,0,0.3,0.1,0.5,0.1c0.1,0.1,0.3,0.1,0.4,0.2c0.1,0.1,0.2,0.2,0.2,0.4c0,0.2,0,0.2-0.1,0.3
		c-0.1,0.1-0.2,0.1-0.4,0.1c-0.2,0-0.1,0-0.1,0c0,0-0.1,0-0.2-0.1c-0.1,0-0.2-0.1-0.3-0.1c-0.1,0-0.2-0.1-0.3-0.1
		c-0.3,0-0.4,0.1-0.5,0.2c-0.1,0.1-0.1,0.3-0.1,0.5v1.2c0,0.2,0.1,0.4,0.1,0.5c0.1,0.1,0.3,0.2,0.5,0.2c0.3,0,0.3,0,0.3-0.1
		c0.1,0,0.2-0.1,0.3-0.1c0.1,0,0.1,0,0.1,0s0.1,0,0.1,0c0.1,0,0.2,0,0.3,0c0.1,0,0.1,0.1,0.2,0.1c0.1,0.1,0.1,0.1,0.1,0.1
		s0,0.1,0,0.2c0,0.2-0.1,0.3-0.2,0.4c-0.1,0.1-0.3,0.2-0.4,0.2c-0.1,0.1-0.3,0.1-0.5,0.1c-0.2,0-0.3,0-0.4,0c-0.3,0-0.6-0.1-0.8-0.1
		c-0.2-0.1-0.4-0.2-0.6-0.4c-0.1-0.1-0.3-0.3-0.3-0.5c-0.1-0.2-0.1-0.4-0.1-0.6L-297,277.6L-297,277.6z"/>
	<path class="st7" d="M-291.6,274.7c0,0.2-0.1,0.3-0.2,0.4c-0.1,0.1-0.3,0.2-0.5,0.2c-0.2,0-0.4-0.1-0.5-0.2
		c-0.1-0.1-0.2-0.3-0.2-0.4c0-0.2,0.1-0.3,0.2-0.4c0.1-0.1,0.3-0.2,0.5-0.2c0.2,0,0.4,0.1,0.5,0.2
		C-291.7,274.4-291.6,274.6-291.6,274.7z M-291.7,279.9c0,0.1-0.1,0.3-0.2,0.4s-0.3,0.2-0.4,0.2c-0.2,0-0.3-0.1-0.4-0.2
		c-0.1-0.1-0.2-0.2-0.2-0.4v-3.5c0-0.1,0.1-0.3,0.2-0.4c0.1-0.1,0.3-0.2,0.4-0.2c0.2,0,0.3,0.1,0.4,0.2s0.2,0.2,0.2,0.4V279.9z"/>
	<path class="st7" d="M-287.1,279.3c0,0.1,0,0.1,0,0.1s0,0.1,0.1,0.1c0,0,0.1,0,0.1,0c0,0,0.1,0,0.1,0c0.1,0.1,0.2,0.2,0.2,0.3
		c0,0.2-0.1,0.3-0.1,0.3c-0.1,0.1-0.3,0.1-0.5,0.1c-0.2,0-0.3,0-0.4-0.1c-0.1-0.1-0.2-0.1-0.3-0.3c-0.2,0.1-0.3,0.2-0.5,0.3
		c-0.2,0.1-0.4,0.1-0.6,0.1c-0.5,0-0.9-0.1-1.2-0.4s-0.4-0.6-0.4-1l0,0c0-0.9,0.6-1.4,1.7-1.4c1.2,0,0.2,0,0.3,0s0.2,0,0.3,0.1v-0.3
		c0-0.4-0.2-0.6-0.7-0.6c-0.4,0-0.2,0-0.3,0c-0.1,0-0.2,0.1-0.3,0.1c0,0-0.1,0-0.1,0.1c-0.1,0-0.1,0-0.2,0s-0.2,0-0.2-0.1
		c-0.1,0-0.1-0.1-0.2-0.1c0-0.1-0.1-0.1-0.1-0.2c0-0.1,0-0.1,0-0.2c0-0.1,0.1-0.3,0.1-0.3c0.1-0.1,0.2-0.2,0.3-0.2
		c0.1-0.1,0.3-0.1,0.5-0.1c0.2,0,0.4,0,0.5,0c0.6,0,1.1,0.1,1.4,0.4c0.3,0.3,0.4,0.8,0.4,1.3L-287.1,279.3L-287.1,279.3z
		 M-289,278.5c-0.1,0-0.2,0-0.3,0c-0.1,0-0.1,0.1-0.2,0.1s-0.1,0.1-0.1,0.2s0,0.1,0,0.2l0,0c0,0.2,0.1,0.3,0.1,0.3
		c0.1,0.1,0.2,0.1,0.4,0.1c0.2,0,0.2,0,0.3-0.1c0.1,0,0.2-0.1,0.3-0.2v-0.6C-288.6,278.6-288.8,278.6-289,278.5L-289,278.5z"/>
	<path class="st7" d="M-286,275.2c0-0.1,0.1-0.3,0.2-0.4c0.1-0.1,0.3-0.1,0.4-0.1s0.3,0.1,0.4,0.2c0.1,0.1,0.2,0.2,0.2,0.4v1h0.6
		c0.2,0,0.3,0.1,0.4,0.1c0.1,0.1,0.2,0.2,0.2,0.4c0,0.1-0.1,0.3-0.2,0.4s-0.3,0.1-0.4,0.1h-0.6v1.3c0,0.2,0,0.3,0,0.4s0,0.2,0.1,0.3
		c0,0.1,0.1,0.1,0.1,0.1s0.1,0.1,0.3,0.1c0.1,0,0.1,0,0.1,0s0,0,0.1,0c0.3,0,0.5,0,0.6,0.1c0.1,0.1,0.1,0.2,0.1,0.4s0,0.2-0.1,0.3
		s-0.1,0.1-0.2,0.2c-0.1,0-0.2,0.1-0.3,0.1c-0.1,0-0.2,0-0.3,0c-0.3,0-0.6,0-0.8-0.1c-0.2-0.1-0.4-0.2-0.5-0.4
		c-0.1-0.2-0.2-0.3-0.3-0.6c-0.1-0.2-0.1-0.5-0.1-0.8L-286,275.2L-286,275.2z"/>
	<path class="st7" d="M-281.4,274.7c0,0.2-0.1,0.3-0.2,0.4c-0.1,0.1-0.3,0.2-0.5,0.2c-0.2,0-0.4-0.1-0.5-0.2
		c-0.1-0.1-0.2-0.3-0.2-0.4c0-0.2,0.1-0.3,0.2-0.4c0.1-0.1,0.3-0.2,0.5-0.2c0.2,0,0.4,0.1,0.5,0.2
		C-281.5,274.4-281.4,274.6-281.4,274.7z M-281.5,279.9c0,0.1-0.1,0.3-0.2,0.4s-0.3,0.2-0.4,0.2s-0.3-0.1-0.4-0.2s-0.2-0.2-0.2-0.4
		v-3.5c0-0.1,0.1-0.3,0.2-0.4c0.1-0.1,0.3-0.2,0.4-0.2s0.3,0.1,0.4,0.2s0.2,0.2,0.2,0.4V279.9z"/>
	<path class="st7" d="M-278.6,280.4c-0.3,0-0.6-0.1-0.8-0.1c-0.2-0.1-0.4-0.2-0.6-0.3s-0.3-0.3-0.4-0.5c-0.1-0.2-0.1-0.4-0.1-0.6
		v-1.3c0-0.2,0-0.4,0.1-0.6s0.2-0.4,0.4-0.5c0.2-0.1,0.4-0.3,0.6-0.3c0.2-0.1,0.5-0.1,0.8-0.1c0.3,0,0.6,0.1,0.8,0.1
		c0.2,0.1,0.4,0.2,0.6,0.3c0.2,0.1,0.3,0.3,0.4,0.5c0.1,0.2,0.1,0.4,0.1,0.6v1.3c0,0.2,0,0.4-0.1,0.6c-0.1,0.2-0.2,0.4-0.4,0.5
		s-0.4,0.3-0.6,0.3S-278.3,280.4-278.6,280.4z M-278.6,279.4c0.2,0,0.4-0.1,0.5-0.2c0.1-0.1,0.2-0.3,0.2-0.4v-1.3
		c0-0.2-0.1-0.3-0.2-0.4c-0.1-0.1-0.3-0.2-0.5-0.2s-0.4,0.1-0.5,0.2s-0.2,0.3-0.2,0.4v1.3c0,0.2,0.1,0.3,0.2,0.4
		C-279,279.3-278.8,279.4-278.6,279.4z"/>
	<path class="st7" d="M-274.5,279.9c0,0.1-0.1,0.3-0.1,0.4c-0.1,0.1-0.3,0.1-0.4,0.1s-0.4-0.1-0.4-0.1c-0.1-0.1-0.1-0.2-0.1-0.4
		v-2.6c0-0.1,0-0.2,0-0.3c0,0,0-0.1-0.1-0.1c-0.1-0.1-0.1-0.1-0.1-0.2s0-0.1,0-0.1c0-0.1,0.1-0.3,0.2-0.4c0.1-0.1,0.3-0.1,0.4-0.1
		c0.2,0,0.3,0.1,0.4,0.3c0.2-0.1,0.4-0.2,0.6-0.3s0.4-0.1,0.6-0.1c0.6,0,1,0.2,1.2,0.5s0.4,0.7,0.4,1.2v2.3c0,0.1-0.1,0.3-0.2,0.4
		c-0.1,0.1-0.3,0.1-0.4,0.1s-0.3-0.1-0.4-0.1c-0.1-0.1-0.2-0.2-0.2-0.4v-2.3c0-0.2-0.1-0.4-0.1-0.5c-0.1-0.1-0.3-0.2-0.4-0.2
		s-0.4,0.1-0.7,0.2c0,0,0,0.1,0,0.1c0,0,0,0.1,0,0.1L-274.5,279.9L-274.5,279.9z"/>
	<path class="st7" d="M-366.6,286.3c0-0.3,0.1-0.5,0.1-0.8c0.1-0.2,0.2-0.4,0.4-0.5c0.2-0.1,0.3-0.3,0.6-0.3
		c0.2-0.1,0.4-0.1,0.7-0.1c0.1,0,0.1,0,0.3,0c0.1,0,0.2,0,0.4,0.1c0.1,0,0.2,0.1,0.3,0.2c0.1,0.1,0.1,0.2,0.1,0.3
		c0,0.1-0.1,0.3-0.2,0.4c-0.1,0.1-0.3,0.1-0.4,0.1s-0.2,0-0.3,0c-0.1,0-0.2,0-0.3,0c-0.2,0-0.3,0.1-0.4,0.2
		c-0.1,0.1-0.1,0.3-0.1,0.4v0.4h0.6c0.2,0,0.3,0.1,0.4,0.1c0.1,0.1,0.2,0.2,0.2,0.4c0,0.1-0.1,0.3-0.2,0.4c-0.1,0.1-0.3,0.1-0.4,0.1
		h-0.6v2.7c0,0.1-0.1,0.3-0.2,0.4c-0.1,0.1-0.3,0.1-0.4,0.1c-0.2,0-0.3-0.1-0.4-0.1c-0.1-0.1-0.2-0.2-0.2-0.4L-366.6,286.3
		L-366.6,286.3z"/>
	<path class="st7" d="M-361.7,290.9c-0.3,0-0.6-0.1-0.8-0.1c-0.2-0.1-0.4-0.2-0.6-0.3c-0.2-0.1-0.3-0.3-0.4-0.5
		c-0.1-0.2-0.1-0.4-0.1-0.6V288c0-0.2,0-0.4,0.1-0.6c0.1-0.2,0.2-0.4,0.4-0.5c0.2-0.1,0.4-0.3,0.6-0.3c0.2-0.1,0.5-0.1,0.8-0.1
		c0.3,0,0.6,0.1,0.8,0.1c0.2,0.1,0.4,0.2,0.6,0.3c0.2,0.1,0.3,0.3,0.4,0.5c0.1,0.2,0.1,0.4,0.1,0.6v1.3c0,0.2,0,0.4-0.1,0.6
		c-0.1,0.2-0.2,0.4-0.4,0.5c-0.2,0.1-0.4,0.3-0.6,0.3C-361.1,290.9-361.3,290.9-361.7,290.9z M-361.7,289.9c0.2,0,0.4-0.1,0.5-0.2
		c0.1-0.1,0.2-0.3,0.2-0.4v-1.3c0-0.2-0.1-0.3-0.2-0.4c-0.1-0.1-0.3-0.2-0.5-0.2c-0.2,0-0.4,0.1-0.5,0.2c-0.1,0.1-0.2,0.3-0.2,0.4
		v1.3c0,0.2,0.1,0.3,0.2,0.4C-362,289.8-361.9,289.9-361.7,289.9z"/>
	<path class="st7" d="M-356.8,287.5c-0.1,0-0.2,0-0.3,0c-0.1,0-0.1,0-0.2,0s-0.1,0-0.2,0s-0.1,0-0.2,0.1c0,0,0,0.1,0,0.1
		c0,0,0,0.1,0,0.1v2.6c0,0.1-0.1,0.3-0.2,0.4c-0.1,0.1-0.3,0.2-0.4,0.2c-0.2,0-0.3-0.1-0.4-0.2c-0.1-0.1-0.2-0.2-0.2-0.4v-2.6
		c0-0.1,0-0.2,0-0.3c0-0.1,0-0.1-0.1-0.2c0-0.1-0.1-0.1-0.1-0.1c0,0,0-0.1,0-0.2c0-0.2,0.1-0.3,0.2-0.4c0.1-0.1,0.3-0.1,0.4-0.1
		c0.2,0,0.2,0,0.3,0.1c0.1,0.1,0.1,0.1,0.2,0.2c0.2-0.1,0.4-0.2,0.6-0.3c0.2-0.1,0.4-0.1,0.5-0.1c0.3,0,0.4,0.1,0.6,0.1
		c0.1,0.1,0.1,0.2,0.1,0.4c0,0.1-0.1,0.3-0.2,0.4C-356.4,287.4-356.6,287.4-356.8,287.5L-356.8,287.5z"/>
	<path class="st7" d="M-348.8,290.8c-0.1,0.1-0.3,0.2-0.4,0.2c-0.2,0-0.3-0.1-0.4-0.2c-0.1-0.1-0.2-0.3-0.2-0.4v-2.1h-1.9v2.1
		c0,0.1-0.1,0.3-0.2,0.4c-0.1,0.1-0.3,0.2-0.4,0.2s-0.3-0.1-0.4-0.2c-0.1-0.1-0.2-0.3-0.2-0.4v-5.2c0-0.1,0.1-0.3,0.2-0.4
		c0.1-0.1,0.3-0.2,0.4-0.2s0.3,0.1,0.4,0.2c0.1,0.1,0.2,0.3,0.2,0.4v2.1h1.9v-2.1c0-0.1,0.1-0.3,0.2-0.4c0.1-0.1,0.3-0.2,0.4-0.2
		c0.2,0,0.3,0.1,0.4,0.2c0.1,0.1,0.2,0.3,0.2,0.4v5.2C-348.6,290.5-348.6,290.6-348.8,290.8L-348.8,290.8z"/>
	<path class="st7" d="M-345.7,289.2c-0.1,0-0.2,0-0.3,0c-0.1,0-0.2,0-0.3,0v0.3c0,0.1,0.1,0.3,0.2,0.4s0.3,0.1,0.5,0.1
		c0.3,0,0.3,0,0.4-0.1c0.1,0,0.3-0.1,0.4-0.1c0,0,0.1,0,0.1,0c0,0,0.1,0,0.2,0s0.2,0,0.3,0.1c0.1,0.1,0.1,0.1,0.2,0.1
		s0.1,0.1,0.1,0.1c0,0.1,0,0.1,0,0.2c0,0.1-0.1,0.3-0.2,0.4c-0.1,0.1-0.3,0.2-0.4,0.2c-0.2,0.1-0.4,0.1-0.6,0.1s-0.4,0-0.5,0
		c-0.3,0-0.6,0-0.8-0.1s-0.4-0.2-0.6-0.3c-0.1-0.1-0.3-0.3-0.4-0.5c-0.1-0.2-0.1-0.4-0.1-0.6v-1.5c0-0.2,0-0.4,0.1-0.6
		c0.1-0.2,0.2-0.4,0.4-0.5c0.2-0.1,0.4-0.3,0.6-0.3c0.2-0.1,0.5-0.1,0.8-0.1c0.6,0,1,0.1,1.3,0.4s0.4,0.6,0.4,1.1s-0.1,0.8-0.4,1
		S-345.2,289.2-345.7,289.2L-345.7,289.2z M-345.2,287.8c0-0.2-0.1-0.3-0.1-0.4s-0.2-0.1-0.4-0.1s-0.4,0.1-0.5,0.1
		c-0.1,0.1-0.2,0.3-0.2,0.4v0.4c0.1,0,0.3,0,0.4,0c0.1,0,0.2,0,0.3,0c0.2,0,0.3,0,0.4-0.1C-345.3,288.1-345.2,287.9-345.2,287.8
		L-345.2,287.8z"/>
	<path class="st7" d="M-339.8,289.8c0,0.1,0,0.1,0,0.1s0,0.1,0.1,0.1c0,0,0.1,0,0.1,0s0.1,0,0.1,0c0.1,0.1,0.2,0.2,0.2,0.3
		c0,0.2-0.1,0.3-0.1,0.3c-0.1,0.1-0.3,0.1-0.5,0.1c-0.2,0-0.3,0-0.4-0.1c-0.1-0.1-0.2-0.1-0.3-0.3c-0.2,0.1-0.3,0.2-0.5,0.3
		c-0.2,0.1-0.4,0.1-0.6,0.1c-0.5,0-0.9-0.1-1.2-0.4c-0.3-0.3-0.4-0.6-0.4-1l0,0c0-0.9,0.6-1.4,1.7-1.4c1.2,0,0.2,0,0.3,0
		c0.1,0,0.2,0,0.3,0.1v-0.3c0-0.4-0.2-0.6-0.7-0.6s-0.2,0-0.3,0c-0.1,0-0.2,0.1-0.3,0.1c0,0-0.1,0-0.1,0.1s-0.1,0-0.2,0
		s-0.2,0-0.2-0.1c-0.1,0-0.1-0.1-0.2-0.1c0-0.1-0.1-0.1-0.1-0.2c0-0.1,0-0.1,0-0.2c0-0.1,0.1-0.3,0.1-0.3c0.1-0.1,0.2-0.2,0.3-0.2
		c0.1-0.1,0.3-0.1,0.5-0.1c0.2,0,0.4,0,0.5,0c0.6,0,1.1,0.1,1.4,0.4s0.4,0.8,0.4,1.3L-339.8,289.8L-339.8,289.8z M-341.6,289
		c-0.1,0-0.2,0-0.3,0c-0.1,0-0.1,0.1-0.2,0.1c-0.1,0.1-0.1,0.1-0.1,0.2s0,0.1,0,0.2l0,0c0,0.2,0.1,0.3,0.1,0.3
		c0.1,0.1,0.2,0.1,0.4,0.1c0.2,0,0.2,0,0.3-0.1c0.1,0,0.2-0.1,0.3-0.2v-0.6C-341.2,289-341.4,289-341.6,289L-341.6,289z"/>
	<path class="st7" d="M-336.6,287.5c-0.1,0-0.2,0-0.3,0c-0.1,0-0.1,0-0.2,0s-0.1,0-0.2,0s-0.1,0-0.2,0.1c0,0,0,0.1,0,0.1
		c0,0,0,0.1,0,0.1v2.6c0,0.1-0.1,0.3-0.2,0.4c-0.1,0.1-0.3,0.2-0.4,0.2c-0.2,0-0.3-0.1-0.4-0.2c-0.1-0.1-0.2-0.2-0.2-0.4v-2.6
		c0-0.1,0-0.2,0-0.3c0-0.1,0-0.1-0.1-0.2c0-0.1-0.1-0.1-0.1-0.1c0,0,0-0.1,0-0.2c0-0.2,0.1-0.3,0.2-0.4c0.1-0.1,0.3-0.1,0.4-0.1
		c0.2,0,0.2,0,0.3,0.1c0.1,0.1,0.1,0.1,0.2,0.2c0.2-0.1,0.4-0.2,0.6-0.3c0.2-0.1,0.4-0.1,0.5-0.1c0.3,0,0.4,0.1,0.6,0.1
		c0.1,0.1,0.1,0.2,0.1,0.4c0,0.1-0.1,0.3-0.2,0.4C-336.2,287.4-336.4,287.4-336.6,287.5L-336.6,287.5z"/>
	<path class="st7" d="M-333.9,285.2c0,0.2-0.1,0.3-0.2,0.4s-0.3,0.2-0.5,0.2c-0.2,0-0.4-0.1-0.5-0.2c-0.1-0.1-0.2-0.3-0.2-0.4
		c0-0.2,0.1-0.3,0.2-0.4c0.1-0.1,0.3-0.2,0.5-0.2c0.2,0,0.4,0.1,0.5,0.2C-334,284.9-333.9,285-333.9,285.2z M-334,290.4
		c0,0.1-0.1,0.3-0.2,0.4c-0.1,0.1-0.3,0.2-0.4,0.2c-0.2,0-0.3-0.1-0.4-0.2c-0.1-0.1-0.2-0.2-0.2-0.4v-3.5c0-0.1,0.1-0.3,0.2-0.4
		c0.1-0.1,0.3-0.2,0.4-0.2c0.2,0,0.3,0.1,0.4,0.2c0.1,0.1,0.2,0.2,0.2,0.4V290.4z"/>
	<path class="st7" d="M-331.6,290.4c0,0.1-0.1,0.3-0.1,0.4c-0.1,0.1-0.3,0.1-0.4,0.1c-0.2,0-0.4-0.1-0.4-0.1
		c-0.1-0.1-0.1-0.2-0.1-0.4v-2.6c0-0.1,0-0.2,0-0.3c0,0,0-0.1-0.1-0.1c-0.1-0.1-0.1-0.1-0.1-0.2s0-0.1,0-0.1c0-0.1,0.1-0.3,0.2-0.4
		c0.1-0.1,0.3-0.1,0.4-0.1c0.2,0,0.3,0.1,0.4,0.3c0.2-0.1,0.4-0.2,0.6-0.3s0.4-0.1,0.6-0.1c0.6,0,1,0.2,1.2,0.5s0.4,0.7,0.4,1.2v2.3
		c0,0.1-0.1,0.3-0.2,0.4c-0.1,0.1-0.3,0.1-0.4,0.1c-0.2,0-0.3-0.1-0.4-0.1c-0.1-0.1-0.2-0.2-0.2-0.4v-2.3c0-0.2-0.1-0.4-0.1-0.5
		c-0.1-0.1-0.3-0.2-0.4-0.2c-0.2,0-0.4,0.1-0.7,0.2c0,0,0,0.1,0,0.1c0,0,0,0.1,0,0.1L-331.6,290.4L-331.6,290.4z"/>
	<path class="st7" d="M-328.3,291.6c0-0.2,0.1-0.3,0.1-0.5c0.1-0.1,0.2-0.3,0.4-0.5c-0.1-0.1-0.1-0.3-0.1-0.4c0-0.1,0-0.3,0-0.3
		s0-0.2,0.1-0.3c0-0.1,0.1-0.2,0.2-0.3c-0.4-0.3-0.6-0.7-0.6-1.2c0-0.5,0-0.4,0.1-0.6c0.1-0.2,0.2-0.4,0.3-0.5
		c0.1-0.1,0.3-0.3,0.6-0.3c0.2-0.1,0.5-0.1,0.8-0.1s0.4,0,0.6,0.1c0.2,0.1,0.4,0.1,0.6,0.2c0.1-0.2,0.3-0.3,0.4-0.4
		c0.1-0.1,0.3-0.1,0.4-0.1c0.1,0,0.3,0.1,0.4,0.1c0.1,0.1,0.2,0.2,0.2,0.4c0,0.1,0,0.1-0.1,0.2c0,0.1-0.1,0.1-0.1,0.1
		c-0.1,0.1-0.1,0.1-0.2,0.2c-0.1,0.1-0.1,0.1-0.1,0.1c0,0-0.1,0.1-0.1,0.1c0,0.1,0,0.1,0,0.2v0.5c0,0.2,0,0.4-0.1,0.6
		c-0.1,0.2-0.2,0.4-0.3,0.5c-0.1,0.1-0.3,0.3-0.6,0.3c-0.2,0.1-0.5,0.1-0.8,0.1s-0.1,0-0.2,0c-0.1,0-0.2,0-0.3,0
		c0,0.1,0,0.1-0.1,0.1c0,0,0,0.1,0,0.1c0,0.1,0,0.2,0.1,0.2s0.1,0.1,0.2,0.1h0.4c0.3,0,0.6,0,0.8,0.1c0.3,0.1,0.4,0.1,0.6,0.3
		c0.2,0.1,0.3,0.3,0.4,0.4c0.1,0.2,0.1,0.4,0.1,0.6c0,0.2-0.1,0.4-0.1,0.6c-0.1,0.2-0.3,0.3-0.4,0.5c-0.2,0.1-0.4,0.2-0.6,0.3
		c-0.3,0.1-0.5,0.1-0.8,0.1c-0.3,0-0.6,0-0.8-0.1c-0.2-0.1-0.4-0.2-0.6-0.3c-0.2-0.1-0.3-0.3-0.4-0.4c-0.1-0.2-0.1-0.4-0.1-0.6
		L-328.3,291.6z M-327,291.1c-0.1,0.1-0.1,0.1-0.1,0.2c0,0.1,0,0.1,0,0.2c0,0.2,0.1,0.3,0.2,0.4c0.1,0.1,0.3,0.1,0.6,0.1
		c0.3,0,0.4-0.1,0.6-0.1c0.1-0.1,0.2-0.2,0.2-0.4s-0.1-0.2-0.2-0.3c-0.1-0.1-0.3-0.1-0.6-0.1L-327,291.1L-327,291.1z M-325.8,287.5
		c-0.1-0.1-0.2-0.1-0.3-0.1c-0.1,0-0.2,0-0.3,0c-0.2,0-0.4,0.1-0.5,0.2c-0.1,0.1-0.2,0.3-0.2,0.5s0.1,0.4,0.2,0.5
		c0.1,0.1,0.3,0.2,0.5,0.2s0.4-0.1,0.5-0.2c0.1-0.1,0.1-0.3,0.1-0.5L-325.8,287.5L-325.8,287.5z"/>
	<path class="st7" d="M-320,290.5c-0.1,0.1-0.1,0.2-0.3,0.3c-0.1,0.1-0.2,0.1-0.3,0.1c-0.2,0-0.3-0.1-0.4-0.1
		c-0.1-0.1-0.2-0.2-0.2-0.4c0-0.2,0-0.1,0-0.1s0-0.1,0-0.1l1.7-5c0.1-0.2,0.1-0.3,0.3-0.4c0.1-0.1,0.3-0.2,0.5-0.2s0.4,0.1,0.5,0.2
		c0.1,0.1,0.2,0.3,0.3,0.4l1.7,5c0,0,0,0.1,0,0.1s0,0.1,0,0.1c0,0.2-0.1,0.3-0.2,0.4c-0.1,0.1-0.3,0.1-0.4,0.1s-0.2,0-0.3-0.1
		c-0.1-0.1-0.2-0.2-0.3-0.3l-0.3-0.9h-1.9L-320,290.5L-320,290.5z M-318.6,287.2c0-0.1-0.1-0.3-0.1-0.4s-0.1-0.3-0.1-0.4
		c0,0.1,0,0.3-0.1,0.4c0,0.1-0.1,0.3-0.1,0.4l-0.4,1.5h1.2L-318.6,287.2L-318.6,287.2z"/>
	<path class="st7" d="M-315.8,288.1c0-0.2,0-0.4,0.1-0.6c0.1-0.2,0.2-0.4,0.3-0.5c0.2-0.1,0.3-0.3,0.6-0.4c0.2-0.1,0.5-0.1,0.8-0.1
		c0.3,0,0.3,0,0.4,0c0.2,0,0.3,0.1,0.5,0.1c0.1,0.1,0.3,0.1,0.4,0.2c0.1,0.1,0.2,0.2,0.2,0.4c0,0.2,0,0.2-0.1,0.3
		c-0.1,0.1-0.2,0.1-0.4,0.1c-0.2,0-0.1,0-0.1,0c0,0-0.1,0-0.2-0.1c-0.1,0-0.2-0.1-0.3-0.1c-0.1,0-0.2-0.1-0.3-0.1
		c-0.3,0-0.4,0.1-0.5,0.2c-0.1,0.1-0.1,0.3-0.1,0.5v1.2c0,0.2,0.1,0.4,0.1,0.5c0.1,0.1,0.3,0.2,0.5,0.2c0.3,0,0.3,0,0.3-0.1
		c0.1,0,0.2-0.1,0.3-0.1c0.1,0,0.1,0,0.1,0s0.1,0,0.1,0c0.1,0,0.2,0,0.3,0c0.1,0,0.1,0.1,0.2,0.1c0,0.1,0.1,0.1,0.1,0.1s0,0.1,0,0.2
		c0,0.2-0.1,0.3-0.2,0.4c-0.1,0.1-0.3,0.2-0.4,0.2c-0.1,0.1-0.3,0.1-0.5,0.1c-0.2,0-0.3,0-0.4,0c-0.3,0-0.6-0.1-0.8-0.1
		c-0.2-0.1-0.4-0.2-0.6-0.4c-0.1-0.1-0.3-0.3-0.3-0.5c-0.1-0.2-0.1-0.4-0.1-0.6L-315.8,288.1L-315.8,288.1z"/>
	<path class="st7" d="M-311.9,288.1c0-0.2,0-0.4,0.1-0.6c0.1-0.2,0.2-0.4,0.3-0.5c0.2-0.1,0.3-0.3,0.6-0.4c0.2-0.1,0.5-0.1,0.8-0.1
		c0.3,0,0.3,0,0.4,0c0.2,0,0.3,0.1,0.5,0.1c0.1,0.1,0.3,0.1,0.4,0.2c0.1,0.1,0.2,0.2,0.2,0.4c0,0.2,0,0.2-0.1,0.3
		c-0.1,0.1-0.2,0.1-0.4,0.1s-0.1,0-0.1,0c0,0-0.1,0-0.2-0.1c-0.1,0-0.2-0.1-0.3-0.1c-0.1,0-0.2-0.1-0.3-0.1c-0.3,0-0.4,0.1-0.5,0.2
		c-0.1,0.1-0.1,0.3-0.1,0.5v1.2c0,0.2,0.1,0.4,0.1,0.5c0.1,0.1,0.3,0.2,0.5,0.2c0.3,0,0.3,0,0.3-0.1c0.1,0,0.2-0.1,0.3-0.1
		c0.1,0,0.1,0,0.1,0s0.1,0,0.1,0c0.1,0,0.2,0,0.3,0c0.1,0,0.1,0.1,0.2,0.1c0,0.1,0.1,0.1,0.1,0.1s0,0.1,0,0.2c0,0.2-0.1,0.3-0.2,0.4
		c-0.1,0.1-0.3,0.2-0.4,0.2c-0.1,0.1-0.3,0.1-0.5,0.1c-0.2,0-0.3,0-0.4,0c-0.3,0-0.6-0.1-0.8-0.1c-0.2-0.1-0.4-0.2-0.6-0.4
		c-0.1-0.1-0.3-0.3-0.3-0.5c-0.1-0.2-0.1-0.4-0.1-0.6L-311.9,288.1L-311.9,288.1z"/>
	<path class="st7" d="M-306.1,289.2c-0.1,0-0.2,0-0.3,0s-0.2,0-0.3,0v0.3c0,0.1,0.1,0.3,0.2,0.4s0.3,0.1,0.5,0.1
		c0.3,0,0.3,0,0.4-0.1s0.3-0.1,0.4-0.1c0,0,0.1,0,0.1,0c0,0,0.1,0,0.2,0c0.1,0,0.2,0,0.3,0.1c0.1,0,0.1,0.1,0.2,0.1
		c0,0.1,0.1,0.1,0.1,0.1c0,0.1,0,0.1,0,0.2c0,0.1-0.1,0.3-0.2,0.4c-0.1,0.1-0.3,0.2-0.4,0.2s-0.4,0.1-0.6,0.1c-0.2,0-0.4,0-0.5,0
		c-0.3,0-0.6,0-0.8-0.1c-0.2-0.1-0.4-0.2-0.6-0.3c-0.1-0.1-0.3-0.3-0.4-0.5c-0.1-0.2-0.1-0.4-0.1-0.6v-1.5c0-0.2,0-0.4,0.1-0.6
		c0.1-0.2,0.2-0.4,0.4-0.5c0.2-0.1,0.4-0.3,0.6-0.3s0.5-0.1,0.8-0.1c0.6,0,1,0.1,1.3,0.4c0.3,0.3,0.4,0.6,0.4,1.1s-0.1,0.8-0.4,1
		S-305.5,289.2-306.1,289.2L-306.1,289.2z M-305.6,287.8c0-0.2-0.1-0.3-0.1-0.4c-0.1-0.1-0.2-0.1-0.4-0.1s-0.4,0.1-0.5,0.1
		c-0.1,0.1-0.2,0.3-0.2,0.4v0.4c0.1,0,0.3,0,0.4,0s0.2,0,0.3,0c0.2,0,0.3,0,0.4-0.1S-305.6,287.9-305.6,287.8L-305.6,287.8z"/>
	<path class="st7" d="M-303.6,287.7c0-0.4,0.1-0.7,0.4-1s0.7-0.4,1.3-0.4c0.6,0,0.3,0,0.4,0c0.2,0,0.3,0.1,0.4,0.1
		c0.1,0.1,0.3,0.1,0.4,0.2c0.1,0.1,0.1,0.2,0.1,0.4s0,0.2-0.1,0.2c0,0.1-0.1,0.1-0.1,0.1c-0.1,0-0.1,0.1-0.2,0.1s-0.1,0-0.2,0
		c-0.1,0-0.1,0-0.2,0c-0.1,0-0.1,0-0.2-0.1c-0.1,0-0.1,0-0.2-0.1c-0.1,0-0.2,0-0.3,0c-0.3,0-0.5,0.1-0.5,0.3s0,0.1,0.1,0.2
		c0,0.1,0.1,0.1,0.2,0.1c0.2,0.1,0.3,0.1,0.5,0.2c0.2,0.1,0.4,0.1,0.6,0.3c0.2,0.1,0.3,0.3,0.4,0.4c0.1,0.2,0.2,0.4,0.2,0.7
		c0,0.4-0.1,0.8-0.4,1c-0.3,0.3-0.7,0.4-1.3,0.4c-0.6,0-0.3,0-0.5,0c-0.2,0-0.4-0.1-0.5-0.1c-0.2-0.1-0.3-0.1-0.4-0.2
		s-0.2-0.2-0.2-0.3c0-0.1,0.1-0.3,0.2-0.4c0.1-0.1,0.3-0.2,0.4-0.2s0.1,0,0.2,0c0.1,0,0.1,0.1,0.2,0.1c0.1,0,0.2,0.1,0.3,0.1
		s0.2,0,0.3,0c0.2,0,0.3,0,0.4-0.1c0.1-0.1,0.1-0.1,0.1-0.3c0-0.1,0-0.1-0.1-0.2s-0.1-0.1-0.1-0.1c-0.1-0.1-0.2-0.1-0.3-0.1
		c-0.1,0-0.3-0.1-0.4-0.1c-0.1-0.1-0.3-0.1-0.4-0.2c-0.1-0.1-0.3-0.1-0.4-0.3s-0.2-0.2-0.3-0.4S-303.7,287.9-303.6,287.7
		L-303.6,287.7z"/>
	<path class="st7" d="M-299.7,287.7c0-0.4,0.1-0.7,0.4-1s0.7-0.4,1.3-0.4c0.6,0,0.3,0,0.4,0c0.2,0,0.3,0.1,0.4,0.1
		c0.1,0.1,0.3,0.1,0.4,0.2c0.1,0.1,0.1,0.2,0.1,0.4s0,0.2-0.1,0.2c0,0.1-0.1,0.1-0.1,0.1s-0.1,0.1-0.2,0.1s-0.1,0-0.2,0
		c-0.1,0-0.1,0-0.2,0c-0.1,0-0.1,0-0.2-0.1c-0.1,0-0.1,0-0.2-0.1c-0.1,0-0.2,0-0.3,0c-0.3,0-0.5,0.1-0.5,0.3s0,0.1,0.1,0.2
		c0,0.1,0.1,0.1,0.2,0.1c0.2,0.1,0.3,0.1,0.5,0.2s0.4,0.1,0.6,0.3c0.2,0.1,0.3,0.3,0.4,0.4c0.1,0.2,0.2,0.4,0.2,0.7
		c0,0.4-0.1,0.8-0.4,1c-0.3,0.3-0.7,0.4-1.3,0.4c-0.6,0-0.3,0-0.5,0c-0.2,0-0.4-0.1-0.5-0.1c-0.2-0.1-0.3-0.1-0.4-0.2
		s-0.2-0.2-0.2-0.3c0-0.1,0.1-0.3,0.2-0.4c0.1-0.1,0.3-0.2,0.4-0.2s0.1,0,0.2,0c0.1,0,0.1,0.1,0.2,0.1c0.1,0,0.2,0.1,0.3,0.1
		s0.2,0,0.3,0c0.2,0,0.3,0,0.4-0.1c0.1-0.1,0.1-0.1,0.1-0.3c0-0.1,0-0.1-0.1-0.2s-0.1-0.1-0.1-0.1c-0.1-0.1-0.2-0.1-0.3-0.1
		c-0.1,0-0.3-0.1-0.4-0.1c-0.1-0.1-0.3-0.1-0.4-0.2c-0.1-0.1-0.3-0.1-0.4-0.3s-0.2-0.2-0.3-0.4S-299.7,287.9-299.7,287.7
		L-299.7,287.7z"/>
	<path class="st7" d="M-294.3,285.2c0,0.2-0.1,0.3-0.2,0.4c-0.1,0.1-0.3,0.2-0.5,0.2c-0.2,0-0.4-0.1-0.5-0.2
		c-0.1-0.1-0.2-0.3-0.2-0.4c0-0.2,0.1-0.3,0.2-0.4c0.1-0.1,0.3-0.2,0.5-0.2c0.2,0,0.4,0.1,0.5,0.2
		C-294.4,284.9-294.3,285-294.3,285.2z M-294.4,290.4c0,0.1-0.1,0.3-0.2,0.4c-0.1,0.1-0.3,0.2-0.4,0.2s-0.3-0.1-0.4-0.2
		c-0.1-0.1-0.2-0.2-0.2-0.4v-3.5c0-0.1,0.1-0.3,0.2-0.4c0.1-0.1,0.3-0.2,0.4-0.2s0.3,0.1,0.4,0.2c0.1,0.1,0.2,0.2,0.2,0.4V290.4z"/>
	<path class="st7" d="M-293.2,285.1c0-0.1,0.1-0.3,0.2-0.4c0.1-0.1,0.3-0.2,0.4-0.2s0.3,0.1,0.4,0.2c0.1,0.1,0.2,0.2,0.2,0.4v1.5
		c0.1-0.1,0.3-0.1,0.4-0.2c0.1,0,0.3-0.1,0.5-0.1s0.5,0,0.7,0.1c0.2,0.1,0.4,0.2,0.5,0.3c0.1,0.1,0.2,0.3,0.3,0.4
		c0.1,0.2,0.1,0.4,0.1,0.6v1.5c0,0.2,0,0.4-0.1,0.6c-0.1,0.2-0.2,0.4-0.3,0.5c-0.1,0.1-0.3,0.3-0.6,0.3s-0.5,0.1-0.8,0.1
		c-0.3,0-0.6,0-0.8-0.1c-0.2-0.1-0.4-0.2-0.6-0.3c-0.2-0.1-0.3-0.3-0.4-0.5c-0.1-0.2-0.1-0.4-0.1-0.6L-293.2,285.1L-293.2,285.1z
		 M-292,289.5c0,0.2,0.1,0.3,0.2,0.4c0.1,0.1,0.3,0.1,0.5,0.1c0.2,0,0.4-0.1,0.5-0.2c0.1-0.1,0.2-0.3,0.2-0.4v-1.6
		c0-0.2-0.1-0.3-0.1-0.4c-0.1-0.1-0.3-0.1-0.4-0.1s-0.5,0.1-0.7,0.3V289.5L-292,289.5z"/>
	<path class="st7" d="M-287.1,285.2c0,0.2-0.1,0.3-0.2,0.4c-0.1,0.1-0.3,0.2-0.5,0.2c-0.2,0-0.4-0.1-0.5-0.2
		c-0.1-0.1-0.2-0.3-0.2-0.4c0-0.2,0.1-0.3,0.2-0.4c0.1-0.1,0.3-0.2,0.5-0.2c0.2,0,0.4,0.1,0.5,0.2
		C-287.2,284.9-287.1,285-287.1,285.2z M-287.2,290.4c0,0.1-0.1,0.3-0.2,0.4c-0.1,0.1-0.3,0.2-0.4,0.2c-0.2,0-0.3-0.1-0.4-0.2
		c-0.1-0.1-0.2-0.2-0.2-0.4v-3.5c0-0.1,0.1-0.3,0.2-0.4c0.1-0.1,0.3-0.2,0.4-0.2c0.2,0,0.3,0.1,0.4,0.2c0.1,0.1,0.2,0.2,0.2,0.4
		V290.4z"/>
	<path class="st7" d="M-285.2,290.9c-0.1,0-0.2,0-0.3,0c-0.1,0-0.2-0.1-0.3-0.1c-0.1-0.1-0.1-0.2-0.2-0.3c-0.1-0.1-0.1-0.3-0.1-0.5
		v-4.8c0-0.1,0.1-0.3,0.2-0.4c0.1-0.1,0.3-0.2,0.4-0.2s0.3,0.1,0.4,0.2c0.1,0.1,0.2,0.2,0.2,0.4v4.7c0,0.1,0,0.2,0,0.2
		s0.1,0.1,0.1,0.2c0.1,0.1,0.1,0.1,0.1,0.1s0.1,0.1,0.1,0.2c0,0.2-0.1,0.3-0.2,0.4C-284.8,290.9-285,290.9-285.2,290.9L-285.2,290.9
		z"/>
	<path class="st7" d="M-282.3,285.2c0,0.2-0.1,0.3-0.2,0.4c-0.1,0.1-0.3,0.2-0.5,0.2c-0.2,0-0.4-0.1-0.5-0.2
		c-0.1-0.1-0.2-0.3-0.2-0.4c0-0.2,0.1-0.3,0.2-0.4c0.1-0.1,0.3-0.2,0.5-0.2c0.2,0,0.4,0.1,0.5,0.2
		C-282.4,284.9-282.3,285-282.3,285.2z M-282.4,290.4c0,0.1-0.1,0.3-0.2,0.4c-0.1,0.1-0.3,0.2-0.4,0.2c-0.2,0-0.3-0.1-0.4-0.2
		c-0.1-0.1-0.2-0.2-0.2-0.4v-3.5c0-0.1,0.1-0.3,0.2-0.4c0.1-0.1,0.3-0.2,0.4-0.2c0.2,0,0.3,0.1,0.4,0.2c0.1,0.1,0.2,0.2,0.2,0.4
		V290.4z"/>
	<path class="st7" d="M-281.2,285.6c0-0.1,0.1-0.3,0.2-0.4c0.1-0.1,0.3-0.1,0.4-0.1s0.3,0.1,0.4,0.2c0.1,0.1,0.2,0.2,0.2,0.4v1h0.6
		c0.2,0,0.3,0.1,0.4,0.1c0.1,0.1,0.2,0.2,0.2,0.4c0,0.1-0.1,0.3-0.2,0.4c-0.1,0.1-0.3,0.1-0.4,0.1h-0.6v1.3c0,0.2,0,0.3,0,0.4
		c0,0.1,0,0.2,0.1,0.3c0,0.1,0.1,0.1,0.1,0.1s0.1,0.1,0.3,0.1c0.1,0,0.1,0,0.1,0s0,0,0.1,0c0.3,0,0.5,0,0.6,0.1
		c0.1,0.1,0.1,0.2,0.1,0.4c0,0.2,0,0.2-0.1,0.3c-0.1,0.1-0.1,0.1-0.2,0.2c-0.1,0-0.2,0.1-0.3,0.1c-0.1,0-0.2,0-0.3,0
		c-0.3,0-0.6,0-0.8-0.1c-0.2-0.1-0.4-0.2-0.5-0.4c-0.1-0.2-0.2-0.3-0.3-0.6c-0.1-0.2-0.1-0.5-0.1-0.8L-281.2,285.6L-281.2,285.6z"/>
	<path class="st7" d="M-275.5,286.8c0-0.1,0.1-0.2,0.2-0.3c0.1-0.1,0.2-0.1,0.3-0.1c0.1,0,0.3,0.1,0.4,0.1c0.1,0.1,0.2,0.2,0.2,0.4
		c0,0.2,0,0.1,0,0.2l-1.1,3.1c-0.1,0.4-0.3,0.7-0.4,1c-0.1,0.3-0.3,0.6-0.4,0.8c-0.1,0.2-0.3,0.4-0.6,0.5c-0.2,0.1-0.5,0.2-0.8,0.2
		c-0.3,0-0.3-0.1-0.4-0.1c-0.1-0.1-0.2-0.2-0.2-0.4s0.1-0.3,0.1-0.4c0.1-0.1,0.3-0.2,0.4-0.2c0.2,0,0.3-0.1,0.4-0.3
		c0.1-0.2,0.2-0.4,0.3-0.7l-1.3-3.5c0-0.1,0-0.1,0-0.1s0-0.1,0-0.1c0-0.1,0.1-0.3,0.2-0.4c0.1-0.1,0.3-0.1,0.4-0.1
		c0.2,0,0.2,0,0.3,0.1c0.1,0.1,0.2,0.1,0.2,0.3l0.6,1.5c0.1,0.2,0.1,0.3,0.1,0.5c0,0.2,0.1,0.3,0.1,0.5c0-0.2,0.1-0.3,0.1-0.5
		c0-0.2,0.1-0.3,0.1-0.5L-275.5,286.8L-275.5,286.8z"/>
</g>
</svg>
