<?xml version="1.0" encoding="utf-8"?>
<!-- Generator: Adobe Illustrator 24.0.1, SVG Export Plug-In . SVG Version: 6.00 Build 0)  -->
<svg version="1.1" id="svg9" xmlns:svg="http://www.w3.org/2000/svg"
	 xmlns="http://www.w3.org/2000/svg" xmlns:xlink="http://www.w3.org/1999/xlink" x="0px" y="0px" viewBox="0 0 666.7 666.7"
	 style="enable-background:new 0 0 666.7 666.7;" xml:space="preserve">
<path d="M640.6,444.4c11.7-33.5,18.1-69.6,18.1-107s-6.4-73.5-18.1-107c-0.3-1-0.6-2-1-2.9C594.4,101.9,474.2,11.9,333.3,11.9
	S72.3,101.9,27.1,227.4c-0.4,0.9-0.8,1.9-1,2.9c-11.7,33.5-18.1,69.6-18.1,107s6.4,73.5,18.1,107c0.3,1,0.6,2,1,2.9
	c45.2,125.5,165.4,215.4,306.2,215.4s261-89.9,306.2-215.4C640,446.4,640.3,445.4,640.6,444.4z M333.3,616.1
	c-12.4,0-32.4-22.4-49.1-72.5c-8.1-24.2-14.5-52-19.2-82.2h136.6c-4.7,30.2-11.2,58-19.2,82.2C365.7,593.7,345.7,616.1,333.3,616.1z
	 M259.4,414.7c-2.2-24.9-3.4-50.8-3.4-77.4c0-26.6,1.2-52.5,3.4-77.4h147.9c2.2,24.9,3.4,50.8,3.4,77.4c0,26.6-1.2,52.5-3.4,77.4
	H259.4z M54.6,337.3c0-26.8,3.8-52.8,10.9-77.4h147.1c-2.2,25.4-3.3,51.4-3.3,77.4c0,26,1.1,52,3.3,77.4H65.5
	C58.4,390.1,54.6,364.2,54.6,337.3z M333.3,58.6c12.4,0,32.4,22.4,49.1,72.5c8.1,24.2,14.5,52,19.2,82.2H265
	c4.7-30.2,11.2-58,19.2-82.2C301,81,320.9,58.6,333.3,58.6z M454.1,260h147.1c7.1,24.6,10.9,50.5,10.9,77.4s-3.8,52.8-10.9,77.4
	H454.1c2.2-25.4,3.3-51.4,3.3-77.4S456.2,285.4,454.1,260z M582.9,213.3H448.7c-8.3-57.2-22.5-108.5-42.5-145
	C483.6,89.3,547.8,142.8,582.9,213.3z M260.5,68.3c-20,36.5-34.2,87.8-42.5,145H83.7C118.9,142.8,183,89.3,260.5,68.3z M83.7,461.4
	H218c8.3,57.2,22.5,108.5,42.5,145C183,585.4,118.9,531.8,83.7,461.4z M406.2,606.4c20-36.5,34.2-87.8,42.5-145h134.2
	C547.8,531.8,483.6,585.4,406.2,606.4z"/>
</svg>
