<?xml version="1.0" encoding="utf-8"?>
<!-- Generator: Adobe Illustrator 24.0.1, SVG Export Plug-In . SVG Version: 6.00 Build 0)  -->
<svg version="1.1" id="svg9" xmlns:svg="http://www.w3.org/2000/svg"
	 xmlns="http://www.w3.org/2000/svg" xmlns:xlink="http://www.w3.org/1999/xlink" x="0px" y="0px" viewBox="0 0 666.7 666.7"
	 style="enable-background:new 0 0 666.7 666.7;" xml:space="preserve">
<style type="text/css">
	.st0{fill:#C02127;}
	.st1{fill:#FFFFFF;}
	.st2{fill:none;}
</style>
<path class="st0" d="M335.3,8.1C154.1,8.1,7.1,155.1,7.1,336.3c0,181.3,146.9,328.2,328.2,328.2c17.5,0,34.7-1.4,51.5-4
	c140.2-22.1,251-133,272.8-273.4c2.6-16.6,3.9-33.5,3.9-50.8C663.5,155.1,516.6,8.1,335.3,8.1z M514.4,409.1
	c-1.3,11.1-4.5,21.1-9.6,29.6c-6.2,10.3-15.9,16.7-28.2,18.5c-10.7,1.5-21.7,2.5-32.8,2.8c-26.5,0.9-53,1.6-78.7,2.2
	c-9.2,0.2-18.4,0.5-27.3,0.7l-2.5-0.1v-93.9l68.8-36.7l-68.8-36.7v-85.6h0.1c0.8,0,1.6,0,2.4-0.1c9.6,0.2,19.4,0.5,29.3,0.8
	c25,0.6,50.9,1.3,76.7,2.1c11.1,0.4,22.1,1.3,32.8,2.8c8,1.1,14.9,4.2,20.4,9.1l3.5,3.5c1.6,1.8,3,3.8,4.3,5.9
	c5.1,8.5,8.3,18.5,9.5,29.6c2.6,23.1,3.8,46.9,3.7,72.8C518.2,362.2,517,386,514.4,409.1z"/>
<g>
	<g>
		<g>
			<path class="st1" d="M514.4,263.6c-1.3-11.1-4.5-21.1-9.6-29.6c-1.3-2.1-2.7-4.1-4.3-5.9c-1.1-1.2-2.2-2.4-3.5-3.5
				c-5.5-4.8-12.4-8-20.4-9.1c-10.7-1.5-21.7-2.5-32.8-2.8c-25.8-0.8-51.7-1.5-76.7-2.1c-9.9-0.3-19.7-0.5-29.3-0.7
				c-0.8,0-1.6,0-2.4,0.1h-0.1h-0.1c-0.8,0-1.6,0-2.4-0.1c-9.6,0.2-19.4,0.5-29.3,0.7c-25,0.6-50.9,1.3-76.7,2.1
				c-11.1,0.4-22.1,1.3-32.8,2.8c-12.3,1.8-22.1,8.2-28.2,18.5c-5.1,8.5-8.3,18.5-9.5,29.6c-2.6,23.2-3.8,47-3.7,72.8
				c-0.1,25.8,1.1,49.6,3.7,72.8c1.2,11.1,4.5,21.1,9.5,29.6c0.4,0.7,0.8,1.3,1.2,2c0,0,0,0.1,0,0.1c2.8,4.1,6.2,7.5,10.1,10.1
				c0,0,0.1,0,0.1,0c4.8,3.3,10.4,5.3,16.7,6.3c10.7,1.5,21.7,2.5,32.8,2.8c26.5,0.9,53.1,1.6,78.7,2.2c9.2,0.2,18.3,0.5,27.3,0.7
				l2.5-0.1h0l2.5,0.1c8.9-0.2,18.1-0.4,27.3-0.7c25.7-0.6,52.2-1.3,78.7-2.2c11.1-0.3,22.1-1.3,32.8-2.8c12.3-1.8,22-8.1,28.2-18.5
				c5.1-8.5,8.3-18.5,9.6-29.6c2.6-23.1,3.8-46.9,3.7-72.8C518.2,310.5,517,286.7,514.4,263.6z M335.3,368.9l-41.7,22.2V273.2
				l41.7,22.2l68.8,36.7L335.3,368.9z"/>
			<polygon class="st0" points="404.2,332.2 335.3,368.9 293.7,391.1 293.7,273.2 335.3,295.5 			"/>
		</g>
	</g>
</g>
<line class="st2" x1="335.3" y1="368.9" x2="335.3" y2="295.5"/>
</svg>
