<?xml version="1.0" encoding="utf-8"?>
<!-- Generator: Adobe Illustrator 24.0.1, SVG Export Plug-In . SVG Version: 6.00 Build 0)  -->
<svg version="1.1" id="Layer_1" xmlns="http://www.w3.org/2000/svg" xmlns:xlink="http://www.w3.org/1999/xlink" x="0px" y="0px"
	 viewBox="0 0 800 800" style="enable-background:new 0 0 800 800;" xml:space="preserve">
<style type="text/css">
	.st0{fill:#1F99A8;}
</style>
<title>accessibility-deaf-solid</title>
<path class="st0" d="M568.8,516.3L405,400l163.8-116.3l0,0c47.6-33.8,76.4-54.2,76.4-89.9c0-35.6-28.7-56-76.4-89.9L504.1,58
	c-30.1-21.4-51.9-36.9-70.9-46.6c-16.5-8.4-41.4-18.1-66.6-5.2c-25.3,13-31.9,38.8-34.6,57.1c-3.1,21-3.1,47.6-3.1,84.5V346v0.4
	l-142.1-99.5c-12.6-8.8-30-5.8-38.9,6.9c-8.8,12.6-5.8,30,6.9,38.9L308.2,400L154.8,507.4c-12.6,8.8-15.7,26.2-6.9,38.9
	c8.8,12.6,26.2,15.7,38.9,6.9l142.1-99.5v0.4v198.1c0,36.8,0,63.5,3.1,84.5c2.7,18.3,9.3,44.2,34.6,57.1c8.8,4.5,17.6,6.3,26,6.3
	c15.6,0,29.8-6,40.6-11.5c19-9.7,40.8-25.1,70.9-46.6l64.7-45.9l0,0c47.6-33.8,76.4-54.2,76.4-89.9
	C645.2,570.5,616.4,550.1,568.8,516.3z M384.7,147.9c0-33.2,0-59.4,2.5-76.3c1.8-11.8,4.2-15.3,4.8-15.6c0,0,0.2-0.1,0.8-0.1
	c1.6,0,5.8,0.6,15,5.3c15.4,7.8,36.8,23.1,64,42.4l64.7,45.9c20.1,14.3,36,25.6,45.3,34.5c5.6,5.3,7.5,8.6,7.5,9.9
	c0,1.2-2,4.6-7.5,9.9c-9.3,8.9-25.2,20.2-45.3,34.5l0,0h0L384.7,346V147.9z M581.8,616c-9.3,8.9-25.2,20.2-45.3,34.5l-64.7,45.9
	c-27.1,19.3-48.6,34.5-63.9,42.3c-12.5,6.4-15.8,5.3-15.8,5.2c-0.6-0.3-3-3.8-4.8-15.6c-2.5-17-2.5-43.1-2.5-76.3V454l151.8,107.8
	c20.1,14.3,36,25.6,45.3,34.5c5.6,5.3,7.5,8.6,7.5,9.9C589.4,607.4,587.4,610.7,581.8,616z"/>
</svg>
