<?xml version="1.0" encoding="utf-8"?>
<!-- Generator: Adobe Illustrator 24.0.1, SVG Export Plug-In . SVG Version: 6.00 Build 0)  -->
<svg version="1.1" id="Layer_1" xmlns="http://www.w3.org/2000/svg" xmlns:xlink="http://www.w3.org/1999/xlink" x="0px" y="0px"
	 viewBox="0 0 800 800" style="enable-background:new 0 0 800 800;" xml:space="preserve">
<style type="text/css">
	.st0{fill:#1F99A8;}
</style>
<title>accessibility-deaf-solid</title>
<g>
	<g>
		<path class="st0" d="M241.5,649.6c-42.7,0-77.5-34.7-77.5-77.5s34.7-77.5,77.5-77.5s77.5,34.7,77.5,77.5S284.2,649.6,241.5,649.6z
			 M241.5,546.3c-14.2,0-25.8,11.6-25.8,25.8s11.6,25.8,25.8,25.8c14.2,0,25.8-11.6,25.8-25.8S255.7,546.3,241.5,546.3z"/>
	</g>
	<path class="st0" d="M568.5,270.9H224.3c-52.2,0-94.7,42.5-94.7,94.7c0,52.2,42.5,94.7,94.7,94.7h344.3c52.2,0,94.7-42.5,94.7-94.7
		C663.2,313.4,620.7,270.9,568.5,270.9z M568.5,408.6h-43v-25.8c0-14.3-11.6-25.8-25.8-25.8s-25.8,11.6-25.8,25.8v25.8H224.3
		c-23.7,0-43-19.3-43-43c0-23.7,19.3-43,43-43h344.3c23.7,0,43,19.3,43,43C611.5,389.3,592.2,408.6,568.5,408.6z"/>
	<g>
		<path class="st0" d="M602.9,598H430.8c-14.3,0-25.8-11.6-25.8-25.8s11.6-25.8,25.8-25.8h172.1c14.3,0,25.8,11.6,25.8,25.8
			S617.2,598,602.9,598z"/>
	</g>
	<path class="st0" d="M761.2,314.3c-6-44.9-19.2-75.4-42.6-98.8c-23.4-23.4-53.9-36.6-98.8-42.6c-39.2-5.3-87.6-5.3-154.5-5.3H327.5
		c-1.7,0-3.3,0-5,0l188.1-88.5c12.9-6.1,18.4-21.5,12.4-34.4c-6.1-12.9-21.5-18.4-34.4-12.4L196,170.1c-0.3,0.1-0.6,0.3-0.9,0.4
		c-7.7,0.6-15.1,1.4-22.2,2.4c-44.9,6-75.4,19.2-98.8,42.6c-23.4,23.4-36.6,53.9-42.6,98.8c-5.3,39.2-5.3,87.6-5.3,154.5
		c0,67,0,115.3,5.3,154.5c6,44.9,19.2,75.4,42.6,98.8c23.4,23.4,53.9,36.6,98.8,42.6c39.2,5.3,87.6,5.3,154.5,5.3h137.7
		c67,0,115.3,0,154.5-5.3c44.9-6,75.4-19.2,98.8-42.6c23.4-23.4,36.6-53.9,42.6-98.8c5.3-39.2,5.3-87.6,5.3-154.5
		C766.5,401.9,766.5,353.5,761.2,314.3z M682.1,685.7c-32.8,32.8-94.3,32.8-216.8,32.8H327.5c-122.5,0-184,0-216.8-32.8
		c-32.8-32.8-32.8-94.3-32.8-216.8s0-184,32.8-216.8s94.3-32.8,216.8-32.8h137.7c122.5,0,184.1,0,216.8,32.8
		c32.8,32.8,32.8,94.3,32.8,216.8S714.8,652.9,682.1,685.7z"/>
</g>
</svg>
