<?xml version="1.0" encoding="utf-8"?>
<!-- Generator: Adobe Illustrator 24.0.1, SVG Export Plug-In . SVG Version: 6.00 Build 0)  -->
<svg version="1.1" id="Layer_1" xmlns="http://www.w3.org/2000/svg" xmlns:xlink="http://www.w3.org/1999/xlink" x="0px" y="0px"
	 viewBox="0 0 800 800" style="enable-background:new 0 0 800 800;" xml:space="preserve">
<style type="text/css">
	.st0{fill:#1F99A8;}
</style>
<title>accessibility-deaf-solid</title>
<g id="icons_Q2">
	<g>
		<circle class="st0" cx="320.6" cy="304.4" r="76.6"/>
		<path class="st0" d="M330.2,36.5C182.3,31.2,58.1,146.8,52.8,294.7c-0.1,3.2-0.2,6.5-0.2,9.7c0,21.1,17.1,38.3,38.3,38.3
			s38.3-17.1,38.3-38.3c0-52.1,21.4-102,59.3-137.8c37-36.7,87.7-56.1,139.7-53.6c99,5.7,178.1,84.7,183.7,183.7
			c3.6,81.9-45.8,156.8-122.5,185.7c-64.9,27-107.2,90.5-107.2,160.8c1.1,43-31.8,79.2-74.6,82.3c-20.4,0-40.2-7.5-55.5-21.1
			c-14.9-14.6-23.2-34.6-23-55.5c0-21.1-17.1-38.3-38.3-38.3S52.6,627.8,52.6,649c0.1,41.1,16.6,80.4,45.9,109.1
			c28.5,28.3,67,44.2,107.2,44h3.8C294,798,360,727.7,358.9,643.2c-0.9-39,22.9-74.3,59.3-88c105.7-42.5,173.7-146.4,170.3-260.3
			C582.7,154.7,470.4,42.3,330.2,36.5z"/>
		<path class="st0" d="M615.3,9.7C601.8-5.1,578.8-6.1,564,7.5c-0.8,0.7-1.5,1.4-2.2,2.2c-14.8,13.6-15.8,36.6-2.2,51.4
			c0.7,0.8,1.4,1.5,2.2,2.2c133.2,126.8,138.3,337.6,11.5,470.8c-3.7,3.9-7.6,7.7-11.5,11.5c-14.8,13.6-15.8,36.6-2.2,51.4
			c0.7,0.8,1.4,1.5,2.2,2.2c13.6,14.8,36.6,15.8,51.4,2.2c0.8-0.7,1.5-1.4,2.2-2.2C778.1,443.7,784,185.6,628.4,22.8
			C624.2,18.3,619.8,14,615.3,9.7L615.3,9.7z"/>
	</g>
</g>
</svg>
