<?xml version="1.0" encoding="utf-8"?>
<!-- Generator: Adobe Illustrator 24.0.1, SVG Export Plug-In . SVG Version: 6.00 Build 0)  -->
<svg version="1.1" id="Layer_1" xmlns="http://www.w3.org/2000/svg" xmlns:xlink="http://www.w3.org/1999/xlink" x="0px" y="0px"
	 viewBox="0 0 800 800" style="enable-background:new 0 0 800 800;" xml:space="preserve">
<style type="text/css">
	.st0{fill:none;}
	.st1{fill:#1F99A8;}
</style>
<title>accessibility-deaf-solid</title>
<g id="invisible_box">
	<rect x="-54" y="-51" class="st0" width="905" height="905"/>
</g>
<g>
	<path class="st1" d="M302.3,469.4c-13.4-14.6-36-15.6-50.6-2.2c-0.8,0.7-1.5,1.4-2.2,2.2L32.7,686.2c-14.6,13.4-15.6,36-2.2,50.6
		c0.7,0.8,1.4,1.5,2.2,2.2c13.4,14.6,36,15.6,50.6,2.2c0.8-0.7,1.5-1.4,2.2-2.2l216.8-216.8c14.6-13.4,15.6-36,2.2-50.6
		C303.8,470.8,303.1,470.1,302.3,469.4z"/>
	<path class="st1" d="M764.3,16.9c-13.4-14.6-36-15.6-50.6-2.2c-0.8,0.7-1.5,1.4-2.2,2.2l-88.6,86.7C510.3,10.9,344,27,251.3,139.6
		c-38.9,47.2-60.2,106.5-60.2,167.7c-0.1,20.8,16.7,37.8,37.5,37.9c1.3,0,2.6-0.1,4-0.2c19.6-2.8,34.1-19.8,33.9-39.6
		c0-50.8,21.2-99.3,58.4-133.9c36.4-36.1,86.4-55.3,137.6-52.8c128.2,5.7,230,148.9,154.6,280.9c-22.3,39.1-57.7,69.1-99.9,84.8
		c-61.7,28.4-100.9,90.5-99.9,158.4c0.1,41.6-32,76.2-73.5,79.2c-20.1,0-39.6-7.4-54.7-20.7l-5.7-7.5c-7.5-8-19.8-8.8-28.3-1.9
		l-26.4,26.4c-6.9,7.2-7.7,18.3-1.9,26.4c3.8,3.8,5.7,7.5,9.4,9.4c28,27.9,66,43.5,105.6,43.4h3.8c83.2-4.1,148.2-73.2,147.1-156.5
		c-1.2-37.9,21.4-72.5,56.6-86.7c136.1-52.1,204.2-204.8,152.1-340.9c-7.2-18.7-16.4-36.5-27.6-53.1l90.5-90.5
		c14.6-13.4,15.6-36,2.2-50.6C765.8,18.3,765,17.6,764.3,16.9z"/>
	<path class="st1" d="M341.9,344.9c20.8,0,37.7-16.9,37.7-37.7c0-41.7,33.8-75.4,75.4-75.4s75.4,33.8,75.4,75.4
		c0,20.8,16.9,37.7,37.7,37.7s37.7-16.9,37.7-37.7c0-83.3-67.5-150.8-150.8-150.8s-150.8,67.5-150.8,150.8
		C304.2,328.1,321.1,344.9,341.9,344.9z"/>
</g>
</svg>
