<?xml version="1.0" encoding="utf-8"?>
<!-- Generator: Adobe Illustrator 24.0.1, SVG Export Plug-In . SVG Version: 6.00 Build 0)  -->
<svg version="1.1" id="Layer_1" xmlns="http://www.w3.org/2000/svg" xmlns:xlink="http://www.w3.org/1999/xlink" x="0px" y="0px"
	 viewBox="0 0 800 800" style="enable-background:new 0 0 800 800;" xml:space="preserve">
<style type="text/css">
	.st0{fill:none;}
	.st1{fill:#1F99A8;}
	.st2{fill:#FFFFFF;}
</style>
<title>accessibility-deaf-solid</title>
<g id="invisible_box">
	<rect x="-54" y="-51" class="st0" width="905" height="905"/>
</g>
<g>
	<path class="st1" d="M549.3,87.1c-90.6-73.4-220.9-73.4-311.4,0c0,0-17.6,19.2-30.1,19.2s-6.9-19.2-6.9-19.2
		c106.4-106.4,279-106.4,385.4,0c0,0,5.5,19.2-6.9,19.2S549.3,87.1,549.3,87.1z"/>
	<path class="st1" d="M257.3,155.9c-12.4,0-3.9-16.3-3.9-16.3c77.4-77.4,202.9-77.4,280.3,0c0,0,8.5,16.3-3.9,16.3
		c-12.4,0-34.1-16.3-34.1-16.3c-60.7-44.3-143.6-44.3-204.4,0C291.3,139.6,269.7,155.9,257.3,155.9L257.3,155.9z"/>
	<path class="st1" d="M305.9,205.5c-13.3,0,0-13.3,0-13.3c48.4-48.4,126.8-48.4,175.2,0c0,0,13.3,13.3,0,13.3
		c-13.3,0-41.1-13.3-41.1-13.3c-28.9-15.3-63.8-15.3-92.8,0C347.2,192.2,319.2,205.5,305.9,205.5L305.9,205.5z M170.5,378.8
		c0-27.4,20.7-57.5,46.5-66.3c0,0,71.8-32.8,179.9-32.8s173.4,32.1,173.4,32.1c25.5,9.7,46.2,39.5,46.2,67v322.1
		c0,27.4-20.6,57.8-46.2,67c0,0-65.3,32.1-173.4,32.1S217,767.2,217,767.2c-25.7-9.2-46.5-38.8-46.5-66.3L170.5,378.8L170.5,378.8z"
		/>
	<path class="st2" d="M220.1,378.8v322.1c0,6.6,7.7,17.6,13.7,19.7l3.7,1.5c1.1,0.5,4.3,1.8,9.3,3.6c9,3.3,19.8,6.7,32,9.8
		c35.4,9.2,75.1,14.8,117.9,14.8c42.7,0,81.1-5.4,114.3-14.4c19.2-5.1,31.7-10,37.2-12.7l2.6-1.2l2.7-1c5.5-2,13.4-13.5,13.4-20.4
		V378.8c0-6.8-7.9-18.3-14.2-20.7l-4.3-1.9c-5.4-2.7-18-7.5-37.2-12.7c-33.3-9-71.6-14.4-114.3-14.4c-42.8,0-82.6,5.6-117.9,14.8
		c-12.2,3.2-23,6.6-32,9.8c-5.1,1.9-8.2,3.2-9.3,3.6l-4.5,1.8C227.8,361.3,220.1,372.2,220.1,378.8L220.1,378.8z"/>
	<path class="st1" d="M467.9,502.7c-27.4,0-49.6-22.2-49.6-49.6c0-27.4,22.2-49.6,49.6-49.6s49.6,22.2,49.6,49.6
		C517.4,480.5,495.3,502.7,467.9,502.7z M319.2,502.7c-27.4,0-49.6-22.2-49.6-49.6c0-27.4,22.2-49.6,49.6-49.6
		c27.4,0,49.6,22.2,49.6,49.6C368.7,480.5,346.5,502.7,319.2,502.7z M393.5,700.9c-41.1,0-74.3-33.3-74.3-74.3
		c0-41.1,33.3-74.3,74.3-74.3s74.3,33.3,74.3,74.3C467.9,667.6,434.6,700.9,393.5,700.9L393.5,700.9z"/>
	<path class="st2" d="M467.9,477.9c13.7,0,24.7-11.1,24.7-24.7s-11.1-24.7-24.7-24.7s-24.7,11.1-24.7,24.7S454.2,477.9,467.9,477.9z
		 M319.2,477.9c13.7,0,24.7-11.1,24.7-24.7s-11.1-24.7-24.7-24.7c-13.7,0-24.7,11.1-24.7,24.7C294.4,466.9,305.5,477.9,319.2,477.9z
		 M393.5,676.1c27.4,0,49.6-22.2,49.6-49.6c0-27.4-22.2-49.6-49.6-49.6c-27.4,0-49.6,22.2-49.6,49.6
		C344,654,366.1,676.1,393.5,676.1z"/>
</g>
</svg>
