<?xml version="1.0" encoding="utf-8"?>
<!-- Generator: Adobe Illustrator 24.0.1, SVG Export Plug-In . SVG Version: 6.00 Build 0)  -->
<svg version="1.1" id="Layer_1" xmlns="http://www.w3.org/2000/svg" xmlns:xlink="http://www.w3.org/1999/xlink" x="0px" y="0px"
	 viewBox="0 0 800 800" style="enable-background:new 0 0 800 800;" xml:space="preserve">
<style type="text/css">
	.st0{fill:#1F99A8;}
</style>
<title>accessibility-deaf-solid</title>
<g>
	<path class="st0" d="M546.8,529.6c-38.7-35.2-90.3-56.7-146.8-56.7s-108,21.5-146.8,56.7c-14.9,13.5-15.9,36.5-2.4,51.4
		c13.5,14.9,36.5,15.9,51.4,2.4c25.9-23.5,60.1-37.8,97.8-37.8c37.7,0,72,14.3,97.8,37.8c14.9,13.5,37.9,12.4,51.4-2.4
		C562.7,566.1,561.6,543.1,546.8,529.6z"/>
	<path class="st0" d="M400.4,654.7H400c-20.1,0-36.4,16.3-36.4,36.4c0,20.1,16.3,36.4,36.4,36.4h0.4c20.1,0,36.4-16.3,36.4-36.4
		C436.7,671,420.4,654.7,400.4,654.7z"/>
	<path class="st0" d="M787.9,257.4C685,165.3,549,109.2,400,109.2c-149,0-285,56.1-387.9,148.2c-15,13.4-16.2,36.4-2.8,51.3
		c13.4,15,36.4,16.2,51.3,2.8C150.7,231,269.6,182,400,182c130.4,0,249.3,49,339.4,129.6c15,13.4,38,12.1,51.3-2.8
		C804.1,293.8,802.9,270.8,787.9,257.4z"/>
	<path class="st0" d="M669.1,395.1c-71-64.6-165.5-104-269.1-104c-103.6,0-198.1,39.4-269.1,104c-14.9,13.5-15.9,36.5-2.4,51.4
		c13.5,14.9,36.5,15.9,51.4,2.4C238,396,315.2,363.8,400,363.8c84.8,0,162,32.2,220.1,85.1c14.9,13.5,37.9,12.4,51.4-2.4
		C685,431.6,683.9,408.6,669.1,395.1z"/>
</g>
</svg>
