<?xml version="1.0" encoding="utf-8"?>
<!-- Generator: Adobe Illustrator 24.0.1, SVG Export Plug-In . SVG Version: 6.00 Build 0)  -->
<svg version="1.1" id="Uploaded_to_svgrepo.com" xmlns="http://www.w3.org/2000/svg" xmlns:xlink="http://www.w3.org/1999/xlink"
	 x="0px" y="0px" viewBox="0 0 800 800" style="enable-background:new 0 0 800 800;" xml:space="preserve">
<style type="text/css">
	.st0{fill:#1F99A8;}
</style>
<path class="st0" d="M650,100H150c-27.5,0-50,22.5-50,50v400c0,27.5,22.5,50,50,50h150l100,100l100-100h150c27.5,0,50-22.5,50-50
	V150C700,122.5,677.5,100,650,100z M650,550H479.3L400,629.3L320.7,550H150V150h500V550z M300,400h-50v-50h50V400z M425,400h-50v-50
	h50V400z M550,400h-50v-50h50V400z"/>
</svg>
