<?xml version="1.0" encoding="utf-8"?>
<!-- Generator: Adobe Illustrator 19.0.0, SVG Export Plug-In . SVG Version: 6.00 Build 0)  -->
<svg version="1.1"
	 id="SVGRoot" xmlns:cc="http://creativecommons.org/ns#" xmlns:dc="http://purl.org/dc/elements/1.1/" xmlns:inkscape="http://www.inkscape.org/namespaces/inkscape" xmlns:rdf="http://www.w3.org/1999/02/22-rdf-syntax-ns#" xmlns:svg="http://www.w3.org/2000/svg" xmlns:sodipodi="http://sodipodi.sourceforge.net/DTD/sodipodi-0.dtd"
	 xmlns="http://www.w3.org/2000/svg" xmlns:xlink="http://www.w3.org/1999/xlink" x="0px" y="0px" viewBox="94 -4 800 800"
	 style="enable-background:new 94 -4 800 800;" xml:space="preserve">
<style type="text/css">
	.st0{fill:#1F99A8;}
</style>
<g>
	<path class="st0" d="M568,326.8c0-19.9-16.2-36.1-36.1-36.1h-18c-109.6,0-198.5,88.9-198.5,198.5s88.9,198.5,198.5,198.5h180.4
		c109.6,0,198.5-88.9,198.5-198.5c0-89.9-59.8-165.8-141.7-190.2c-20.3-6.1-38.7,10.8-38.7,32.1v1.9c0,18,13.5,32.7,30.1,39.5
		c45.9,18.9,78.1,64.1,78.1,116.8c0,69.7-56.5,126.3-126.3,126.3H513.9c-69.7,0-126.3-56.5-126.3-126.3s56.5-126.3,126.3-126.3h18
		C551.9,362.9,568,346.8,568,326.8z"/>
	<path class="st0" d="M477.8,110.3c109.6,0,198.5,88.9,198.5,198.5c0,109.6-88.9,198.5-198.5,198.5h-18c-19.9,0-36.1-16.2-36.1-36.1
		c0-19.9,16.2-36.1,36.1-36.1h18c69.7,0,126.3-56.5,126.3-126.3s-56.5-126.3-126.3-126.3H297.4c-69.7,0-126.3,56.5-126.3,126.3
		c0,52.7,32.3,97.9,78.1,116.8c16.6,6.8,30.1,21.6,30.1,39.5v1.9c0,21.2-18.4,38.1-38.7,32.1C158.7,474.6,99,398.7,99,308.8
		c0-109.6,88.9-198.5,198.5-198.5H477.8z"/>
</g>
</svg>
