<?xml version="1.0" encoding="utf-8"?>
<!-- Generator: Adobe Illustrator 24.0.1, SVG Export Plug-In . SVG Version: 6.00 Build 0)  -->
<svg version="1.1" id="Uploaded_to_svgrepo.com" xmlns="http://www.w3.org/2000/svg" xmlns:xlink="http://www.w3.org/1999/xlink"
	 x="0px" y="0px" viewBox="0 0 800 800" style="enable-background:new 0 0 800 800;" xml:space="preserve">
<style type="text/css">
	.st0{fill:#1F99A8;}
</style>
<path class="st0" d="M666.4,268.2c0,91.6-60.4,203.9-117.2,263.1c-14.4,15-24.7,32.5-35.5,51c-26.5,45.1-56.5,96.3-148.1,96.3
	c-98.9,0-138.9-56.6-165.3-94c-6.5-9.2-12.7-18-18.2-23.4l38.7-38.7c8.8,8.8,16.2,19.3,24.2,30.6c24.6,34.8,50.1,70.8,120.6,70.8
	c60.3,0,76.5-27.5,100.9-69.2c11.4-19.4,24.4-41.5,43.2-61.2c49-51.1,102-151.7,102-225.2c0-105.6-85.9-191.5-191.5-191.5
	s-191.5,85.9-191.5,191.5H174C174,132.5,284.5,22,420.2,22S666.4,132.5,666.4,268.2z M310.8,377.6h-27.4v54.7h27.4
	c33,0,82.1-21.9,82.1-82.1c0-44.8-27.2-68.4-54.7-77.5v-4.4c0.2-13.8,4.8-82.2,82.1-82.2s81.9,68.5,82.1,82.2l27.4-0.1H557
	c0-47.3-28.6-136.8-136.8-136.8s-136.8,89.5-136.8,136.8l0.4,54l26.6,0.7c12.6,0.3,27.7,5.3,27.7,27.4S323.1,377.3,310.8,377.6z"/>
</svg>
