<?xml version="1.0" encoding="utf-8"?>
<!-- Generator: Adobe Illustrator 24.0.1, SVG Export Plug-In . SVG Version: 6.00 Build 0)  -->
<svg version="1.1" id="Layer_1" xmlns="http://www.w3.org/2000/svg" xmlns:xlink="http://www.w3.org/1999/xlink" x="0px" y="0px"
	 viewBox="0 0 800 800" style="enable-background:new 0 0 800 800;" xml:space="preserve">
<style type="text/css">
	.st0{fill:#1F99A8;}
</style>
<g>
	<g>
		<path class="st0" d="M778.9,590l-105.1-43.8c26.6-5.6,51.1-13.4,71.8-23.1c12-5.6,19.6-17.7,19.5-30.7
			c-0.8-104.3-12.2-177.6-36-230.6c-30.2-67.3-81.6-101.5-152.8-101.5s-122.6,34.1-152.8,101.5c-23.8,53-35.2,126.3-36,230.6
			c-0.1,13.1,7.6,25.2,19.5,30.7c20.7,9.7,45.3,17.6,71.8,23.1L373.6,590c-12.8,5.3-21.1,17.8-21.1,31.7c0,18.9,15.4,34.3,34.3,34.3
			h378.9c18.9,0,34.3-15.4,34.3-34.3C800,607.8,791.7,595.4,778.9,590z M419.7,495.8c-1.3-0.6-2.2-1.9-2.2-3.2
			c0.7-100,11.3-169.4,33.4-218.5c25.3-56.3,66.3-83.7,125.4-83.7s100.1,27.4,125.4,83.7c22,49,32.6,118.5,33.4,218.5
			c0,1.4-0.8,2.6-2.2,3.2c-22.3,10.4-49.6,18.5-79.5,23.6v-9.7l19-10.5c18.7-10.4,31.1-29.4,33-50.7l10-110.4
			c0.6-7-3.6-13.4-10.2-15.6c-29.3-9.8-40.1-39.9-40.1-40.1c-1.4-4.3-4.8-7.8-9.1-9.4s-9.1-1.1-13,1.2
			c-58.4,35-190.9,47.5-192.2,47.6c-8.3,0.8-14.4,8.1-13.6,16.4l10,110.4c1.9,21.3,14.3,40.3,33,50.7l19,10.5v9.7
			C469.3,514.4,441.9,506.2,419.7,495.8z M630.3,553.9c-13.9,15.2-33.4,23.8-54.1,23.8c-20.7,0-40.2-8.7-54.1-23.8
			c4.5-6.5,7-14.3,7-22.6v-4.8l15.6,8.7c9.8,5.5,20.6,8.2,31.4,8.2c10.8,0,21.6-2.7,31.4-8.2l15.6-8.7v4.8
			C623.3,539.6,625.8,547.4,630.3,553.9z M593.1,508.8c-10.5,5.8-23.1,5.8-33.6,0l-64.6-35.9c-10-5.6-16.6-15.7-17.7-27.1l-8.7-95.6
			c34.7-4.1,120.9-16.3,175.6-42.4c7.1,12.2,19.8,28.5,40.4,38.7l-9,99.4c-1,11.4-7.6,21.6-17.7,27.1L593.1,508.8z M765.7,625.9
			H386.8c-2.3,0-4.2-1.9-4.2-4.2c0-1.7,1-3.2,2.6-3.9l112.1-46.7c19.7,23.3,48.4,36.7,79,36.7s59.3-13.4,79-36.7l112.1,46.7
			c1.6,0.7,2.6,2.2,2.6,3.9C769.9,624,768,625.9,765.7,625.9z"/>
	</g>
</g>
<g>
	<g>
		<path class="st0" d="M218.9,261.9c-22.4-18.2-51.7-25.2-80.5-19.2c-37.5,7.8-67,38.5-73.5,76.4c-6.4,37,8.6,73.3,39.1,94.7
			c4.8,3.4,7.6,8.1,7.6,13v5.3c0,17.2,14,31.1,31.1,31.1h1v1c0,8.3,6.7,15.1,15.1,15.1s15.1-6.7,15.1-15.1v-1h1
			c17.2,0,31.1-14,31.1-31.1v-5.4c0-4.9,2.6-9.5,7-12.6c25.8-17.8,41.1-47.1,41.1-78.3C254.2,307.1,241.3,280.1,218.9,261.9z
			 M195.9,389.5c-12.5,8.7-20,22.6-20,37.3v5.4c0,0.6-0.4,1-1,1h-32.1c-0.6,0-1-0.4-1-1v-5.3c0-14.8-7.4-28.6-20.4-37.7
			c-20.9-14.7-31.1-39.6-26.8-65c4.4-25.4,24.9-46.8,50-52.1c4.8-1,9.6-1.5,14.4-1.5c15,0,29.1,5,41,14.6
			c15.3,12.5,24.1,30.9,24.1,50.6C224.1,357.3,213.5,377.3,195.9,389.5z"/>
	</g>
</g>
<g>
	<g>
		<path class="st0" d="M364.4,456.6l-46-76.7V239.6c0-34.9-28.4-63.2-63.2-63.2H62.5c-34.9,0-63.2,28.4-63.2,63.2v240.8
			c0,34.9,28.4,63.2,63.2,63.2h192.6c34.9,0,63.2-28.4,63.2-63.2v-1h33.1c5.4,0,10.4-2.9,13.1-7.6
			C367.3,467.1,367.2,461.3,364.4,456.6z M303.3,449.3c-8.3,0-15.1,6.7-15.1,15.1v16.1c0,18.3-14.9,33.1-33.1,33.1H62.5
			c-18.3,0-33.1-14.9-33.1-33.1V239.6c0-18.3,14.9-33.1,33.1-33.1h192.6c18.3,0,33.1,14.9,33.1,33.1v144.5c0,2.7,0.7,5.4,2.1,7.7
			l34.5,57.5L303.3,449.3L303.3,449.3z"/>
	</g>
</g>
<g>
	<g>
		<path class="st0" d="M158.8,288.8c-8.3,0-15.1,6.7-15.1,15.1V336c0,8.3,6.7,15.1,15.1,15.1c8.3,0,15.1-6.7,15.1-15.1v-32.1
			C173.9,295.5,167.2,288.8,158.8,288.8z"/>
	</g>
</g>
<g>
	<g>
		<path class="st0" d="M159,369h-0.2c-8.3,0-15,6.7-15,15.1s6.8,15.1,15.1,15.1s15.1-6.7,15.1-15.1S167.3,369,159,369z"/>
	</g>
</g>
</svg>
