<?xml version="1.0" encoding="utf-8"?>
<!-- Generator: Adobe Illustrator 24.0.1, SVG Export Plug-In . SVG Version: 6.00 Build 0)  -->
<svg version="1.1" id="Layer_1" xmlns="http://www.w3.org/2000/svg" xmlns:xlink="http://www.w3.org/1999/xlink" x="0px" y="0px"
	 viewBox="0 0 800 800" style="enable-background:new 0 0 800 800;" xml:space="preserve">
<style type="text/css">
	.st0{fill:#1F99A8;}
</style>
<path class="st0" d="M342.5,766c-10.1-0.1-21-2.2-33.2-6.2c-6.5-2.2-12.9-4.7-19.3-7.4c-5.7-2.5-9.2-4-12.5-5.8
	c-8.8-5-17.4-11.9-25.4-20.4c-6.9-7.4-13.9-14.8-20.2-22.7c-13.7-17.3-28.7-37.7-32.7-60.6c-1.2-7-0.6-12,2.1-16.8
	c2.8-4.8,7.5-8.4,12.9-9.9c1.9-0.5,3.7-0.8,5.6-0.8c9.6,0,18.3,6.5,21,15.9c0.8,2.8,1.8,5.5,2.9,8.1c5.8,12.7,13.8,23.9,20.8,33.3
	c4.4,5.4,9,10.4,13.7,15.5l2,2.2c3.3,3.7,6.6,7.3,10.2,10.6l-0.2,0.2l1.1,0.9l0.2-0.1c0.6,0.5,1.1,0.9,1.6,1.4
	c5.9,4,12.5,7.6,20.2,11c9.5,3.7,17.7,6.1,25.6,7.5c1.9,0.1,3.6,0.2,5.3,0.2c4.5,0,8.9-0.3,13.4-0.8c10.1-1.8,20.7-5,32.4-9.7
	c6.4-2.9,11.8-5.9,16.5-9.3c10.1-8.5,18.4-19,26.4-29.2l2-2.6c6.8-9.4,12.6-19.6,18.2-29.5c3.1-5.5,6.3-11.1,9.6-16.6
	c6.5-10.6,13.6-20.6,20.8-30.6l9.2-13l8.9-12.8c7.1-10.4,14.2-20.8,21.8-30.8c7.7-10.4,15.9-20.4,24.1-30.5l10.6-13
	c11.2-15,21.7-31,32.2-48.9c10.6-18.4,18.5-33.6,24.9-47.9c8-20.5,13.6-39.8,17-58.9c1.4-13.1,1.2-26.3,0.8-37.4
	c-0.4-11.9-1.4-23.8-2.7-35.7c-2.4-16.7-5.8-30.6-10.4-42.6c-6.6-14.3-15.3-26.7-22.1-35.9c-3.8-4.7-7.8-9.1-11.7-13.6l-3.7-4.3
	c-4-4.6-8.2-8.9-12.8-12.9c-9.1-6.3-18.9-11.6-28.4-16.8l-9.1-5c-4.8-2.6-9.6-4.8-14.5-7L496,117c-7.2-2.9-15.6-6-24.6-7.7
	c-13.1-1.3-26.4-1.5-39.3-1.5l-6.1,0c-9.7,0-19.2,0.3-28.9,1.3c-7.6,1.3-15,3.1-22.4,4.9l-4.9,1.2c-2.8,0.7-14.9,3.1-14.9,3.1
	c-5.7,1.3-11.1,3-16.5,5.1c-13.8,6.2-27.6,14.6-43.6,26.3c-10,8-19.8,17.3-31.9,29.9c-2.8,3-5.5,6-8,9.1l-3.1,3.8l-3.6,4.8
	c-2.1,2.9-9.6,13.6-9.6,13.6c-3.5,5.1-7,10.1-10.4,15.3c-7.6,11.6-14.5,24.5-21.2,39.5l-4.4,11.5c-2.4,6.3-5.1,9.9-9.6,12.5
	c-3.2,1.9-6.8,2.9-10.6,2.9c-1.8,0-3.7-0.3-5.5-0.7c-5.2-1.5-9.7-4.9-12.5-9.6c-2.4-4.1-4.1-10.9-2.1-15.9
	c7.7-19.7,16-36.6,25.4-51.7c7.4-11.9,15.6-23.5,23.7-35c0,0,5.2-7.4,6.7-9.2c1-1.7,2.1-3.2,3.3-4.4c7.6-9.1,15.4-17.4,24.7-25.9
	c15.1-14,27.4-23.9,40-32l3.4-2.2c7.4-4.8,14.9-9.7,22.9-13.6c4.6-2.2,9.4-4.4,14.2-6.5c5.9-2.5,10.1-4.3,14.6-5.4
	c2.6-0.6,5.2-1.2,7.8-1.8c7-1.5,14-3.2,21-4.9l10.4-2.5c9.9-2.3,20.6-3.9,32.6-4.7c2.8-0.2,5.6-0.2,8.4-0.2c3.2,0,18.6,0.3,18.6,0.3
	c10.1,0.1,20.3,0.2,30.5,1c7.1,0.6,13.5,1.1,19.3,2.9c4.5,1.5,9.1,3,13.5,4.7c7.7,3,15.1,6.6,22.6,10.1L534,89
	c10.4,4.8,20.3,10,30.2,15.7c3.1,1.8,6.3,3.5,9.4,5.2c5.6,3,11.2,6.1,16.5,9.5c10.6,6.9,18.8,15.5,25.5,23
	c9.1,10.4,16.8,19.9,23.5,29.3c7,9.9,12.2,18.6,16.2,27.4c4.5,9.9,8.1,20.4,11,32c2.9,11.8,4.2,24.1,5.3,35.8
	c1,10.6,1.5,21.3,1.7,32.1c0.3,12,0.5,23.2-0.5,34.1c-1.1,11.9-3.5,24.1-7.5,38.6c-5.7,20.9-14.5,42.8-26.8,66.8
	c-10,19.5-21.2,38.4-33.2,56.3c-10,14.8-21.6,28.9-32.7,42.6l-11.7,14.4c-8.9,11.8-16.9,24-25,36.2l-9.1,13.8
	c-3.5,5.2-7.1,10.3-10.7,15.5c-8.4,12-17.1,24.5-24.4,37.6c-5.6,10.1-10.7,19.4-16.4,28.3c-6.5,10.3-14.1,19.9-21.4,29.3l-1.6,2
	c-5.5,6.8-11,13.9-17.8,19.4c-8.4,6.9-17.7,12.4-30.4,17.8c-9,3.7-18.5,7.6-28.1,10.3c-9.9,2.7-20.9,4.2-31.6,4.2H342.5z
	 M236.9,545.4c-8.5,0-16.6-6.3-18.9-14.6c-2.8-10.3,3.1-20.8,13.8-24.2c7.6-2.5,15.2-5.2,22.7-8.2c5.8-2.8,11.5-6.2,17.6-10.6
	c2.5-2.2,4.8-4.4,6.9-6.8c2.2-3.2,4-6.4,5.6-9.7c0.8-2.1,1.3-4.1,1.8-6.1c-0.4-3.3-0.8-4.8-1.3-6.3c-3.1-2.7-5.3-3.8-7.7-4.9
	c-4.2-1.8-8.4-3.6-12.4-5.6l-5.1-2.3c-2.3-1-4.6-2-6.8-3.2c-12.2-6.5-20.9-15.2-25.1-24.9c-4.8-10.9-7.3-23.6-7.3-37.8
	c0-13.6,3.3-27,6.1-37c2.9-10.4,6.2-21.5,11.1-32.4c4.3-9.7,9-19,14.1-28.3c7.9-14.2,17.6-28.9,29.8-44.8
	c8.5-11.3,15.7-19.5,23.2-26.7c6.8-6.6,15-13.2,25.8-20.9c7.4-5.3,15.2-9.8,22.5-12.9c8.8-3.8,18.4-6.8,29.2-8.9
	c8.8-1.8,16.8-2.7,24.4-2.7c2.9,0,5.7,0.1,8.6,0.4c11.7,1.1,22.1,2.6,31.8,4.8c19.2,4.2,38.2,15,55.1,31.2
	c16.8,16,28.3,33.2,34.4,51c3.2,9.7,3.7,20.4,4.1,30.7l0.2,3c0.4,9,0.7,18,0.7,26.9c0,11-9.3,20.2-20.2,20.2s-20.1-9.1-20.3-20.3
	l-0.1-9.2c-0.1-10.9-0.2-21.9-1.3-32.7c-0.6-3.2-1.4-6.2-2.5-9.2c-3.2-6.8-7-13.2-11.3-19.1c-5.5-6.6-12-13.1-19.5-19.4
	c-5.9-4.2-12.4-7.9-18.8-11c-7.3-2.6-15.6-4.6-26.1-6.1c-5.9-0.7-11.6-1.1-17.4-1.1c-2.8,0-5.5,0.1-8.4,0.4
	c-9,1.5-16.7,3.5-23.7,5.9c-8.4,4-16.7,9-24.7,14.8c-11.1,9-20.3,18-28.2,27.6c-19.6,26.6-34.6,51.6-45.9,76.5
	c-5.3,13.2-9.3,26.9-11.9,40.7c-0.6,6.4-0.6,12.6,0,19.1c0.6,3.3,1.3,6.3,2.4,9.4l1.3,2.4c1.2,1.2,2.5,2.4,3.9,3.4
	c4.3,3.1,9,5.7,13.6,8.3c3.1,1.7,6.2,3.2,9.4,4.6c2.3,1.1,4.6,2.2,6.9,3.4c3.9,2,7.6,4.6,10.8,7.4c5.6,5.2,8.4,11.3,11,17.6
	c4.4,10.6,4.6,22.5,0.4,33.7c-3.9,10.4-8.5,18.7-14.5,26.2c-5.2,6.4-11.7,11.3-18,15.8c-14.7,10.5-31.8,16.9-46.7,21.8
	C240.5,545.1,238.7,545.4,236.9,545.4z"/>
</svg>
