<?xml version="1.0" encoding="utf-8"?>
<!-- Generator: Adobe Illustrator 24.0.1, SVG Export Plug-In . SVG Version: 6.00 Build 0)  -->
<svg version="1.1" id="Layer_1" xmlns="http://www.w3.org/2000/svg" xmlns:xlink="http://www.w3.org/1999/xlink" x="0px" y="0px"
	 viewBox="0 0 800 800" style="enable-background:new 0 0 800 800;" xml:space="preserve">
<style type="text/css">
	.st0{fill:#99AAB5;}
	.st1{fill:#E0AA94;}
	.st2{fill:#66757F;}
	.st3{fill:#D3CFDD;}
	.st4{fill:#FFFFFF;}
</style>
<polygon class="st0" points="895.8,-272.2 895.8,-212.5 716.7,-212.5 716.7,-152.7 895.8,-152.7 895.8,-93 985.4,-182.6 "/>
<g>
	<path class="st1" d="M507.2,104c0,0,237.2,237.2,19.7,554.1l-347.1-277"/>
	<path class="st2" d="M590.9,526.8c0,0,62.6-185.3-0.6-277.1l-74.4,32.4l-33.8,77.4v80.4l33.8,50.9l31,36H590.9z"/>
	<path class="st1" d="M485.7,96.6c-78.7,0-169.8,48.1-255.8,105.5C143.7,259.5,64.4,327.5,17.9,374L0,391.9l17.9,17.9
		c46.5,46.5,125.8,114.5,211.9,171.9c86.1,57.4,177.1,105.5,255.9,105.5h10.5l7.4-7.4c24.3-24.3,44.4-52.4,60.4-82.9
		c-57.6-3-103.8-28.4-134.3-65c-32.5-39.1-48-89.7-48-139.9c0-50.3,15.5-100.9,48-139.9c30.5-36.6,76.8-62,134.3-65
		c-16-30.5-36.1-58.6-60.4-82.9l-7.4-7.4H485.7z"/>
	<path class="st0" d="M575.7,237.2c-49.5,0-83.4,18.7-107.1,47.1c-23.7,28.4-36.3,67.8-36.3,107.5s12.6,79.1,36.3,107.5
		c23.7,28.4,57.6,47.1,107.1,47.1h10.4c5.3-14.8,9.8-30,13.5-45.5c-7,3.8-15,6.1-23.9,6.1c-26.1,0-44-19.5-54.4-40.3
		c-10.4-20.9-15.8-46.7-15.8-74.9c0-28.3,5.4-54.1,15.8-74.9c10.4-20.9,28.3-40.3,54.4-40.3c8.9,0,16.9,2.3,23.9,6.1
		c-3.7-15.5-8.2-30.7-13.5-45.5H575.7z"/>
	<path class="st3" d="M480.6,151c-66.6,0-143.6,39.2-216.4,86c-72.8,46.8-139.9,102.3-179.2,140.2l-15.1,14.6l15.1,14.6
		c39.3,37.9,106.4,93.4,179.2,140.2c72.8,46.8,149.8,86,216.4,86h8.9l6.3-6c20.6-19.8,37.5-42.7,51.1-67.6
		c-48.7-2.5-87.8-23.2-113.6-53.1c-27.5-31.9-40.6-73.2-40.6-114.2c0-41,13.1-82.3,40.6-114.1c25.8-29.9,64.9-50.6,113.6-53.1
		c-13.6-24.9-30.5-47.8-51.1-67.6l-6.3-6.1H480.6z"/>
	<ellipse class="st4" cx="598.1" cy="346.9" rx="22.5" ry="45"/>
</g>
</svg>
