<?xml version="1.0" encoding="utf-8"?>
<!-- Generator: Adobe Illustrator 24.0.1, SVG Export Plug-In . SVG Version: 6.00 Build 0)  -->
<svg version="1.1"
	 id="SVGRoot" xmlns:cc="http://creativecommons.org/ns#" xmlns:dc="http://purl.org/dc/elements/1.1/" xmlns:inkscape="http://www.inkscape.org/namespaces/inkscape" xmlns:rdf="http://www.w3.org/1999/02/22-rdf-syntax-ns#" xmlns:sodipodi="http://sodipodi.sourceforge.net/DTD/sodipodi-0.dtd" xmlns:svg="http://www.w3.org/2000/svg"
	 xmlns="http://www.w3.org/2000/svg" xmlns:xlink="http://www.w3.org/1999/xlink" x="0px" y="0px" viewBox="0 0 800 800"
	 style="enable-background:new 0 0 800 800;" xml:space="preserve">
<style type="text/css">
	.st0{fill:#1F99A8;}
</style>
<g id="layer1">
	<path id="path6180" class="st0" d="M400,133.3c-111.1,0-208.9,54.4-279.4,111.7c-35.2,28.6-63.8,58.2-84.2,83.7
		c-10.2,12.8-18.4,24.4-24.5,35.2C5.8,374.7,0,381.9,0,400s5.8,25.3,11.9,36.1c6.2,10.8,14.3,22.5,24.5,35.2
		c20.4,25.5,48.9,55,84.2,83.7c70.5,57.3,168.3,111.7,279.4,111.7S608.9,612.3,679.4,555c35.2-28.6,63.8-58.2,84.2-83.7
		c10.2-12.8,18.4-24.4,24.5-35.2c6.2-10.8,11.9-18.1,11.9-36.1s-5.8-25.3-11.9-36.1c-6.2-10.8-14.3-22.5-24.5-35.2
		c-20.4-25.5-48.9-55-84.2-83.7C608.9,187.7,511.1,133.3,400,133.3z M400,200c88.9,0,174.5,45.6,237.3,96.7
		c31.4,25.5,57.1,52.3,74.2,73.6c8.5,10.7,15,20.1,18.7,26.6c0.7,1.3,0.7,1.9,1.2,3.1c-0.4,1.2-0.4,1.8-1.2,3.1
		c-3.7,6.5-10.1,15.9-18.7,26.6c-17.1,21.4-42.7,48.1-74.2,73.6C574.5,554.4,488.9,600,400,600s-174.5-45.6-237.3-96.7
		c-31.4-25.5-57.1-52.3-74.2-73.6c-8.5-10.7-15-20.1-18.7-26.6c-0.7-1.3-0.7-1.9-1.2-3.1c0.4-1.2,0.4-1.8,1.2-3.1
		c3.7-6.5,10.1-15.9,18.7-26.6c17.1-21.4,42.7-48.1,74.2-73.6C225.5,245.6,311.1,200,400,200z M398,266.7
		c-72.8,1.1-131.3,60.5-131.3,133.3c0,73.6,59.7,133.3,133.3,133.3S533.3,473.6,533.3,400c0-13.3-2-26.5-5.9-39.2
		c-10.8,23.9-34.6,39.2-60.7,39.2c-36.8,0-66.7-29.8-66.7-66.7c0-26.2,15.4-50,39.3-60.7c-12.7-3.9-25.9-5.9-39.3-5.9
		C399.3,266.7,398.7,266.7,398,266.7z"/>
</g>
</svg>
