<?xml version="1.0" encoding="utf-8"?>
<!-- Generator: Adobe Illustrator 24.0.1, SVG Export Plug-In . SVG Version: 6.00 Build 0)  -->
<svg version="1.1" id="Layer_1" xmlns="http://www.w3.org/2000/svg" xmlns:xlink="http://www.w3.org/1999/xlink" x="0px" y="0px"
	 viewBox="0 0 800 800" style="enable-background:new 0 0 800 800;" xml:space="preserve">
<style type="text/css">
	.st0{fill:#1F99A8;}
</style>
<g>
	<path class="st0" d="M600.7-0.3h-400c-27.6,0-50,22.4-50,50v700c0,27.6,22.4,50,50,50h400c27.6,0,50-22.4,50-50v-700
		C650.7,22,628.3-0.3,600.7-0.3z M625.7,749.7c0,13.8-11.2,25-25,25h-400c-13.8,0-25-11.2-25-25v-100h450V749.7z M625.7,624.7h-450
		v-500h450V624.7z M625.7,99.7h-450v-50c0-13.8,11.2-25,25-25h400c13.8,0,25,11.2,25,25V99.7z"/>
	<path class="st0" d="M400.7,749.7c20.7,0,37.5-16.8,37.5-37.5c0-20.7-16.8-37.5-37.5-37.5s-37.5,16.8-37.5,37.5
		C363.2,732.9,380,749.7,400.7,749.7z M400.7,699.7c6.9,0,12.5,5.6,12.5,12.5s-5.6,12.5-12.5,12.5c-6.9,0-12.5-5.6-12.5-12.5
		S393.8,699.7,400.7,699.7z"/>
	<path class="st0" d="M413.2,49.7h-75c-6.9,0-12.5,5.6-12.5,12.5s5.6,12.5,12.5,12.5h75c6.9,0,12.5-5.6,12.5-12.5
		S420.1,49.7,413.2,49.7z"/>
	<circle class="st0" cx="463.2" cy="62.2" r="12.5"/>
</g>
<g>
	<g>
		<path class="st0" d="M400.7,470.5c-13.8,0-25-11.2-25-25v-41.7c0-17.1,7.6-42,44.1-63.5c11.5-6.8,18.4-18.9,18.4-32.3
			c0-20.7-16.8-37.5-37.5-37.5s-37.5,16.8-37.5,37.5c0,13.8-11.2,25-25,25s-25-11.2-25-25c0-48.2,39.3-87.5,87.5-87.5
			c48.2,0,87.5,39.3,87.5,87.5c0,30.8-16.5,59.7-43,75.3c-11.9,7-19.5,15.1-19.5,20.5v41.7C425.7,459.3,414.5,470.5,400.7,470.5z"/>
	</g>
	<circle class="st0" cx="400.7" cy="545.5" r="33.3"/>
</g>
</svg>
