<?xml version="1.0" encoding="utf-8"?>
<!-- Generator: Adobe Illustrator 19.0.0, SVG Export Plug-In . SVG Version: 6.00 Build 0)  -->
<svg version="1.1"
	 id="SVGRoot" xmlns:cc="http://creativecommons.org/ns#" xmlns:dc="http://purl.org/dc/elements/1.1/" xmlns:inkscape="http://www.inkscape.org/namespaces/inkscape" xmlns:rdf="http://www.w3.org/1999/02/22-rdf-syntax-ns#" xmlns:svg="http://www.w3.org/2000/svg" xmlns:sodipodi="http://sodipodi.sourceforge.net/DTD/sodipodi-0.dtd"
	 xmlns="http://www.w3.org/2000/svg" xmlns:xlink="http://www.w3.org/1999/xlink" x="0px" y="0px" viewBox="94 -4 800 800"
	 style="enable-background:new 94 -4 800 800;" xml:space="preserve">
<style type="text/css">
	.st0{fill:#1F99A8;}
</style>
<g>
	<path class="st0" d="M610.6,783H442.2c-26.6,0-52.3-11.3-70.3-30.9L234,601.6c-31-33.8-33.5-85-6-121.7l73.1-97.4
		c7.5-9.9,21.6-12,31.5-4.5c9.9,7.5,12,21.6,4.5,31.5L264,506.9c-14.5,19.4-13.2,46.4,3.2,64.3l137.9,150.5
		c9.5,10.4,23.1,16.3,37.1,16.3h168.4c76.2,0,123.3-64,123.3-123.3V302.3c0-12.4,10.1-22.5,22.5-22.5s22.5,10.1,22.5,22.5v312.4
		c0,42-16.8,84.2-46.1,115.6C701.1,764.3,657.7,783,610.6,783z"/>
</g>
<g>
	<path class="st0" d="M647.1,345.6c-12.4,0-22.5-10.1-22.5-22.5v-20.8c0-55.8,38.8-85,77.2-85s77.2,29.2,77.2,85
		c0,12.4-10.1,22.5-22.5,22.5S734,314.7,734,302.3c0-29.5-17.3-40-32.2-40s-32.2,10.5-32.2,40v20.8
		C669.6,335.5,659.5,345.6,647.1,345.6z"/>
</g>
<g>
	<path class="st0" d="M647.1,345.6c-12.4,0-22.5-10.1-22.5-22.5v-62.5c0-29.5-17.3-40-32.2-40s-32.2,10.5-32.2,40v62.5
		c0,12.4-10.1,22.5-22.5,22.5s-22.5-10.1-22.5-22.5v-62.5c0-55.8,38.8-85,77.2-85s77.2,29.2,77.2,85v62.5
		C669.6,335.5,659.5,345.6,647.1,345.6z"/>
</g>
<g>
	<path class="st0" d="M537.7,345.6c-12.4,0-22.5-10.1-22.5-22.5V232c0-13.3-3.7-24-10.6-31.1c-5.7-5.7-13.3-8.9-21.6-8.9
		c-14.8,0-32.2,10.5-32.2,40v91.1c0,12.4-10.1,22.5-22.5,22.5s-22.5-10.1-22.5-22.5V232c0-55.8,38.8-85,77.2-85s77.2,29.2,77.2,85
		v91.1C560.2,335.5,550.2,345.6,537.7,345.6z"/>
</g>
<g>
	<path class="st0" d="M319,527.9c-12.4,0-22.5-10.1-22.5-22.5V86.2c0-42.6,34.6-77.2,77.2-77.2s77.2,34.6,77.2,77.1v237
		c0,12.4-10.1,22.5-22.5,22.5s-22.5-10.1-22.5-22.5v-237c0-17.7-14.4-32.1-32.2-32.1s-32.2,14.4-32.2,32.2v419.2
		C341.5,517.8,331.5,527.9,319,527.9z"/>
</g>
</svg>
