<?xml version="1.0" encoding="utf-8"?>
<!-- Generator: Adobe Illustrator 24.0.1, SVG Export Plug-In . SVG Version: 6.00 Build 0)  -->
<svg version="1.1" id="Uploaded_to_svgrepo.com" xmlns="http://www.w3.org/2000/svg" xmlns:xlink="http://www.w3.org/1999/xlink"
	 x="0px" y="0px" viewBox="0 0 800 800" style="enable-background:new 0 0 800 800;" xml:space="preserve">
<style type="text/css">
	.st0{fill:#1F99A8;}
</style>
<path class="st0" d="M650,100H150c-27.5,0-50,24.6-50,54.6v436.8c0,30,22.5,54.6,50,54.6h89v0h61h70.7h58.6H500h22v0h128
	c27.5,0,50-24.6,50-54.6V154.6C700,124.6,677.5,100,650,100z M650,591.4H522h-42.7H320.7H239h-89V154.6h500V591.4z"/>
<g>
	<path class="st0" d="M425.1,276v241.1h-50.8V276h-91.1v-45.1h237V276H425.1z"/>
</g>
</svg>
